<svg width="2319" height="1825" xmlns="http://www.w3.org/2000/svg" xmlns:xlink="http://www.w3.org/1999/xlink" overflow="hidden"><defs><clipPath id="clip0"><rect x="930" y="210" width="2319" height="1825"/></clipPath></defs><g clip-path="url(#clip0)" transform="translate(-930 -210)"><rect x="934.5" y="215.5" width="2310" height="1815" stroke="#000000" stroke-width="4.58333" stroke-linecap="butt" stroke-linejoin="miter" stroke-miterlimit="8" stroke-opacity="1" fill="#FFFFFF" fill-opacity="1"/><path d="M1602.5 678C1602.5 655.08 1621.08 636.5 1644 636.5 1666.92 636.5 1685.5 655.08 1685.5 678 1685.5 700.92 1666.92 719.5 1644 719.5 1621.08 719.5 1602.5 700.92 1602.5 678Z" stroke="#000000" stroke-width="4.58333" stroke-linecap="butt" stroke-linejoin="miter" stroke-miterlimit="8" stroke-opacity="1" fill="#000000" fill-rule="evenodd" fill-opacity="1"/><path d="M2048.5 678C2048.5 655.08 2066.86 636.5 2089.5 636.5 2112.14 636.5 2130.5 655.08 2130.5 678 2130.5 700.92 2112.14 719.5 2089.5 719.5 2066.86 719.5 2048.5 700.92 2048.5 678Z" stroke="#000000" stroke-width="4.58333" stroke-linecap="butt" stroke-linejoin="miter" stroke-miterlimit="8" stroke-opacity="1" fill="#000000" fill-rule="evenodd" fill-opacity="1"/><path d="M2493.5 678C2493.5 655.08 2512.08 636.5 2535 636.5 2557.92 636.5 2576.5 655.08 2576.5 678 2576.5 700.92 2557.92 719.5 2535 719.5 2512.08 719.5 2493.5 700.92 2493.5 678Z" stroke="#000000" stroke-width="4.58333" stroke-linecap="butt" stroke-linejoin="miter" stroke-miterlimit="8" stroke-opacity="1" fill="#000000" fill-rule="evenodd" fill-opacity="1"/><path d="M1602.5 1123.5C1602.5 1100.86 1621.08 1082.5 1644 1082.5 1666.92 1082.5 1685.5 1100.86 1685.5 1123.5 1685.5 1146.14 1666.92 1164.5 1644 1164.5 1621.08 1164.5 1602.5 1146.14 1602.5 1123.5Z" stroke="#000000" stroke-width="4.58333" stroke-linecap="butt" stroke-linejoin="miter" stroke-miterlimit="8" stroke-opacity="1" fill="#000000" fill-rule="evenodd" fill-opacity="1"/><path d="M1606.5 1569C1606.5 1546.08 1625.08 1527.5 1648 1527.5 1670.92 1527.5 1689.5 1546.08 1689.5 1569 1689.5 1591.92 1670.92 1610.5 1648 1610.5 1625.08 1610.5 1606.5 1591.92 1606.5 1569Z" stroke="#000000" stroke-width="4.58333" stroke-linecap="butt" stroke-linejoin="miter" stroke-miterlimit="8" stroke-opacity="1" fill="#000000" fill-rule="evenodd" fill-opacity="1"/><path d="M2048.5 1125.5C2048.5 1102.86 2066.86 1084.5 2089.5 1084.5 2112.14 1084.5 2130.5 1102.86 2130.5 1125.5 2130.5 1148.14 2112.14 1166.5 2089.5 1166.5 2066.86 1166.5 2048.5 1148.14 2048.5 1125.5Z" stroke="#000000" stroke-width="4.58333" stroke-linecap="butt" stroke-linejoin="miter" stroke-miterlimit="8" stroke-opacity="1" fill="#000000" fill-rule="evenodd" fill-opacity="1"/><path d="M2493.5 1125.5C2493.5 1102.86 2512.08 1084.5 2535 1084.5 2557.92 1084.5 2576.5 1102.86 2576.5 1125.5 2576.5 1148.14 2557.92 1166.5 2535 1166.5 2512.08 1166.5 2493.5 1148.14 2493.5 1125.5Z" stroke="#000000" stroke-width="4.58333" stroke-linecap="butt" stroke-linejoin="miter" stroke-miterlimit="8" stroke-opacity="1" fill="#000000" fill-rule="evenodd" fill-opacity="1"/><path d="M2493.5 1573C2493.5 1550.08 2512.08 1531.5 2535 1531.5 2557.92 1531.5 2576.5 1550.08 2576.5 1573 2576.5 1595.92 2557.92 1614.5 2535 1614.5 2512.08 1614.5 2493.5 1595.92 2493.5 1573Z" stroke="#000000" stroke-width="4.58333" stroke-linecap="butt" stroke-linejoin="miter" stroke-miterlimit="8" stroke-opacity="1" fill="#000000" fill-rule="evenodd" fill-opacity="1"/><path d="M2050.5 1573C2050.5 1550.08 2068.86 1531.5 2091.5 1531.5 2114.14 1531.5 2132.5 1550.08 2132.5 1573 2132.5 1595.92 2114.14 1614.5 2091.5 1614.5 2068.86 1614.5 2050.5 1595.92 2050.5 1573Z" stroke="#000000" stroke-width="4.58333" stroke-linecap="butt" stroke-linejoin="miter" stroke-miterlimit="8" stroke-opacity="1" fill="#000000" fill-rule="evenodd" fill-opacity="1"/><path d="M2920.35 1960.56 2919.18 1960.56 2921.63 1961.3 2919.77 1960.07 2919.12 1959.72 2917.04 1958.8 2918.33 1959.66 2914.62 1956.11 2914.31 1955.84 2911.32 1953.46 2911.44 1953.55 2906.95 1949.72 2907.11 1949.87 2904.17 1947.1 2903.92 1946.88 2900.4 1944.03 2900.75 1944.34 2895.56 1939.15 2895.56 1939.15 2892.88 1936.47 2892.88 1936.47 2887.86 1931.44 2887.86 1931.44 2886.44 1930.03 2886.44 1930.03 2884.52 1928.11 2883.53 1927.37 2882.28 1926.67 2883.9 1928.21 2883.2 1927.09 2883.2 1927.09C2882.85 1926.52 2882.36 1926.03 2881.79 1925.67L2880.67 1924.98 2881.58 1925.73 2880.93 1925.03 2881.43 1925.68 2880.75 1924.6 2880.75 1924.6C2880.04 1923.48 2878.87 1922.73 2877.55 1922.56L2876.53 1922.43 2880.4 1926.32 2880.27 1925.28 2880.27 1925.28C2880.11 1923.96 2879.37 1922.79 2878.26 1922.07L2877.19 1921.38 2878.65 1922.91 2877.95 1921.7 2877.77 1921.41 2876.46 1919.49 2875.48 1918.46 2873.55 1916.99 2874.68 1918.26 2873.15 1915.67 2872.02 1914.39 2870.09 1912.92 2871.32 1914.37 2869.95 1911.79 2869.95 1911.79C2869.65 1911.22 2869.23 1910.73 2868.72 1910.34L2866.79 1908.86 2867.62 1909.7 2866.15 1907.77 2865.76 1907.32 2863.78 1905.35 2863.96 1905.53 2862.69 1904.11 2863.05 1904.57 2861.74 1902.65 2861.21 1902.01 2859.96 1900.76 2859.96 1900.76 2858.7 1899.51 2858.7 1899.51 2857.45 1898.26 2858.2 1899.25 2857.5 1897.99 2856.94 1897.2 2855.82 1895.94 2856.39 1896.74 2855.7 1895.49 2855.7 1895.49C2855.29 1894.76 2854.69 1894.16 2853.96 1893.76L2852.71 1893.06 2854.33 1894.6 2853.63 1893.48 2853.63 1893.48C2853.27 1892.91 2852.79 1892.42 2852.21 1892.07L2851.1 1891.37 2851.97 1892.08 2851.3 1891.38 2851.84 1892.06 2851.15 1890.98 2851.15 1890.98C2850.43 1889.86 2849.26 1889.12 2847.94 1888.95L2846.89 1888.82 2849.19 1889.82 2848.56 1889.3 2848.46 1889.21 2847.81 1888.7 2847.78 1888.68 2846.17 1887.44 2847.24 1888.62 2846.41 1887.28 2845.77 1886.48 2843.96 1884.68 2843.96 1884.68 2842.71 1883.42 2842.71 1883.42 2841.46 1882.17 2841.46 1882.17 2840.21 1880.92 2840.21 1880.92 2838.99 1879.7 2838.99 1879.7 2838.3 1879.02 2838.3 1879.01 2837.78 1878.49 2837.78 1878.49C2836.03 1876.75 2833.21 1876.75 2831.46 1878.49 2829.72 1880.24 2829.72 1883.07 2831.47 1884.81 2831.47 1884.81 2831.47 1884.81 2831.47 1884.81L2831.99 1885.33 2831.99 1885.33 2832.67 1886.02 2832.67 1886.02 2833.89 1887.24 2833.89 1887.24 2835.14 1888.49 2835.14 1888.49 2836.4 1889.74 2836.4 1889.74 2837.65 1890.99 2837.65 1890.99 2839.46 1892.8 2838.82 1892 2839.66 1893.34 2840.73 1894.52 2842.34 1895.76 2842.31 1895.74 2842.96 1896.25 2842.85 1896.16 2843.48 1896.68 2843.48 1896.68C2844.13 1897.23 2844.93 1897.58 2845.78 1897.68L2846.83 1897.81 2843.61 1895.78 2844.3 1896.86 2844.84 1897.54 2845.5 1898.24 2846.36 1898.94 2847.48 1899.64 2846.06 1898.22 2846.75 1899.33 2846.75 1899.33C2847.15 1899.97 2847.71 1900.5 2848.37 1900.87L2849.62 1901.56 2847.89 1899.83 2848.58 1901.08 2849.15 1901.88 2850.26 1903.13 2849.69 1902.33 2850.39 1903.58 2851.14 1904.57 2852.39 1905.82 2852.39 1905.83 2853.64 1907.08 2853.64 1907.08 2854.89 1908.33 2854.36 1907.69 2855.67 1909.61 2856.03 1910.06 2857.29 1911.48 2857.47 1911.66 2859.44 1913.64 2859.05 1913.19 2860.53 1915.12 2861.36 1915.96 2863.29 1917.43 2862.06 1915.98 2863.43 1918.56 2863.43 1918.56C2863.73 1919.12 2864.15 1919.62 2864.66 1920.01L2866.59 1921.49 2865.46 1920.21 2866.99 1922.81 2868.13 1924.08 2870.06 1925.56 2869.08 1924.53 2870.39 1926.45 2870.21 1926.15 2870.9 1927.36 2870.9 1927.36C2871.26 1927.98 2871.76 1928.5 2872.35 1928.89L2873.42 1929.58 2871.4 1926.36 2871.53 1927.4 2871.53 1927.4C2871.78 1929.43 2873.37 1931.03 2875.39 1931.29L2876.41 1931.42 2873.2 1929.38 2873.89 1930.46 2874.39 1931.11 2875.03 1931.8 2875.94 1932.55 2877.05 1933.25 2875.63 1931.83 2876.33 1932.94 2876.33 1932.94C2876.73 1933.58 2877.28 1934.11 2877.94 1934.48L2879.2 1935.17 2878.21 1934.43 2880.12 1936.34 2880.12 1936.34 2881.54 1937.76 2881.54 1937.76 2886.56 1942.78 2886.56 1942.78 2889.25 1945.47 2889.25 1945.47 2894.43 1950.65 2894.78 1950.96 2898.29 1953.82 2898.04 1953.6 2900.98 1956.37 2901.15 1956.52 2905.64 1960.35 2905.76 1960.44 2908.74 1962.82 2908.43 1962.55 2912.14 1966.11 2913.43 1966.97 2915.51 1967.89 2914.87 1967.54 2916.72 1968.76 2916.72 1968.76C2917.45 1969.24 2918.3 1969.49 2919.18 1969.49L2920.35 1969.49 2920.35 1969.49C2922.82 1969.49 2924.82 1967.49 2924.82 1965.02 2924.81 1962.56 2922.82 1960.56 2920.35 1960.56Z" fill="#33CCFF" fill-rule="nonzero" fill-opacity="1"/><path d="M2839.13 1919.06 2839.13 1917.25 2839.13 1915.56 2839.13 1914.31 2839.13 1913.09 2839.13 1911.41 2839.13 1910.08 2839.13 1908.39 2839.13 1906.47 2839.04 1905.55 2838.48 1902.91 2838.57 1903.56 2838.43 1901.33 2838.16 1900.05 2836.99 1896.92 2837.24 1898 2837.09 1896.58 2837.09 1896.58C2837.02 1895.93 2836.81 1895.31 2836.47 1894.75L2835.33 1892.87 2835.95 1894.71 2835.82 1893.47 2835.46 1892.11 2834.93 1890.94 2835.32 1892.76 2835.32 1891.53 2835.32 1890.32 2835.32 1889.07 2835.32 1887.82 2835.32 1886.6 2834.96 1884.83 2834.43 1883.62 2834.77 1884.89 2834.64 1883.73 2834.64 1883.73C2834.54 1882.81 2834.15 1881.95 2833.54 1881.26L2832.51 1880.1 2833.61 1882.59 2833.49 1881.4 2833.49 1881.4C2833.39 1880.47 2833.01 1879.6 2832.39 1878.91L2831.33 1877.71 2832.44 1880.34 2832.3 1878.43 2832.3 1878.43C2832.21 1877.16 2831.58 1875.99 2830.58 1875.22L2829.47 1874.36 2831.18 1877.54 2831.05 1875.76 2831.05 1875.76C2830.93 1874.35 2830.16 1873.07 2828.96 1872.32L2827.85 1871.63 2829.92 1874.92 2829.78 1873.67 2829.4 1872.31 2828.85 1871.09 2828.26 1870.13 2827.7 1869.45 2827.94 1874.75 2828.29 1874.22 2824.58 1876.2 2824.69 1876.2 2825.87 1876.2 2827.1 1876.2 2828.33 1876.2 2829.57 1876.2 2831.35 1876.2 2832.72 1876.2 2834.46 1876.2 2835.68 1876.2 2836.87 1876.2 2838.11 1876.2 2839.34 1876.2 2841.24 1876.2 2843.3 1876.2 2846.03 1876.2 2848.75 1876.2 2850.82 1876.2 2853.38 1876.2 2854.78 1876.2 2856.67 1876.2 2857.91 1876.2 2859.14 1876.2 2860.34 1876.2 2860.34 1876.2C2861.41 1876.2 2862.45 1875.82 2863.26 1875.12L2864.44 1874.09 2862.46 1875.08 2863.65 1874.82 2863.65 1874.82C2864.38 1874.67 2865.05 1874.33 2865.62 1873.85L2866.81 1872.83 2863.9 1873.9 2865.1 1873.9 2866.3 1873.9 2866.94 1873.9 2866.94 1873.9 2867.46 1873.9 2867.46 1873.9C2869.92 1873.9 2871.92 1871.9 2871.92 1869.44 2871.92 1866.97 2869.92 1864.97 2867.45 1864.97 2867.45 1864.97 2867.45 1864.97 2867.45 1864.97L2866.94 1864.97 2866.94 1864.97 2866.3 1864.97 2865.1 1864.97 2863.9 1864.97 2863.9 1864.97C2862.84 1864.97 2861.81 1865.35 2861 1866.05L2859.81 1867.07 2861.78 1866.09 2860.59 1866.35 2860.59 1866.35C2859.85 1866.5 2859.17 1866.84 2858.6 1867.33L2857.42 1868.35 2860.34 1867.27 2859.14 1867.27 2857.91 1867.27 2856.67 1867.27 2854.78 1867.27 2853.38 1867.27 2850.82 1867.27 2848.75 1867.27 2846.03 1867.27 2843.3 1867.27 2841.24 1867.27 2839.34 1867.27 2838.11 1867.27 2836.87 1867.27 2835.68 1867.27 2834.46 1867.27 2832.72 1867.27 2831.35 1867.27 2829.57 1867.27 2828.33 1867.27 2827.1 1867.27 2825.87 1867.27 2824.69 1867.27 2824.58 1867.27 2824.58 1867.27C2823.09 1867.27 2821.7 1868.01 2820.87 1869.25L2820.52 1869.77 2820.52 1869.77C2819.43 1871.4 2819.52 1873.55 2820.76 1875.07L2821.31 1875.76 2820.72 1874.8 2821.28 1876.02 2820.9 1874.66 2821.04 1875.91 2821.04 1875.91C2821.19 1877.26 2821.95 1878.48 2823.11 1879.2L2824.23 1879.9 2822.14 1876.46 2822.28 1878.24 2822.28 1878.24C2822.38 1879.49 2823 1880.65 2824 1881.42L2825.11 1882.28 2823.39 1879.07 2823.53 1880.99 2823.53 1880.99C2823.6 1881.96 2823.99 1882.89 2824.64 1883.62L2825.7 1884.83 2824.61 1882.34 2824.73 1883.54 2824.73 1883.54C2824.83 1884.46 2825.22 1885.33 2825.83 1886.03L2826.86 1887.19 2825.76 1884.72 2825.9 1885.89 2826.23 1887.16 2826.76 1888.37 2826.39 1886.6 2826.39 1887.82 2826.39 1889.07 2826.39 1890.32 2826.39 1891.53 2826.39 1892.76 2826.78 1894.59 2827.3 1895.76 2826.94 1894.4 2827.07 1895.64 2827.07 1895.64C2827.14 1896.3 2827.35 1896.93 2827.69 1897.49L2828.83 1899.37 2828.21 1897.54 2828.36 1898.96 2828.62 1900.04 2829.79 1903.18 2829.51 1901.89 2829.65 1904.11 2829.74 1904.76 2830.3 1907.39 2830.2 1906.47 2830.2 1908.39 2830.2 1910.08 2830.2 1911.41 2830.2 1913.09 2830.2 1914.31 2830.2 1915.56 2830.2 1917.25 2830.2 1919.06 2830.2 1919.06C2830.2 1921.52 2832.2 1923.52 2834.67 1923.52 2837.13 1923.52 2839.13 1921.52 2839.13 1919.06Z" fill="#33CCFF" fill-rule="nonzero" fill-opacity="1"/><path d="M2777.98 1830.3 2777.31 1827.67 2776.87 1826.58 2774.02 1821.58 2773.96 1821.47 2771.4 1817.24 2771.27 1817.04 2766.95 1810.73 2766.79 1810.51 2763.9 1806.79 2761.01 1803.07 2760.95 1802.99 2758.09 1799.47 2758.41 1799.92 2756.21 1796.39 2755.76 1795.79 2753.15 1792.85 2753.6 1793.45 2751.4 1789.92 2751.14 1789.54 2749 1786.79 2748.31 1786.09 2745.72 1783.95 2746.72 1785.13 2745.19 1782.53 2744.19 1781.36 2741.59 1779.22 2742.39 1780.08 2740.93 1778.01 2740.44 1777.43 2737.86 1774.85 2737.28 1774.37 2735.21 1772.9 2736.08 1773.7 2733.93 1771.11 2733.33 1770.51 2730.74 1768.37 2731.05 1768.65 2728.91 1766.51 2729.2 1766.83 2727.06 1764.23 2725.89 1763.23 2723.29 1761.7 2724.47 1762.7 2722.33 1760.11 2721.46 1759.3 2719.38 1757.83 2719.96 1758.31 2717.38 1755.73 2717.38 1755.73 2715.96 1754.32 2713.38 1751.73 2713.86 1752.31 2712.39 1750.23 2711.59 1749.37 2708.99 1747.23 2710 1748.4 2708.47 1745.82 2708.47 1745.82C2708.09 1745.17 2707.55 1744.62 2706.9 1744.24L2704.3 1742.71 2705.48 1743.71 2703.35 1741.13 2702.48 1740.32 2700.4 1738.85 2700.97 1739.33 2698.39 1736.75 2697.82 1736.27 2695.74 1734.79 2696.19 1735.16 2694.11 1733.23 2693.79 1732.96 2691.21 1730.98 2691.08 1730.89 2688.99 1729.41 2689.86 1730.21 2687.72 1727.62 2687.18 1727.07 2683.97 1724.32 2684.22 1724.55 2681.93 1722.25 2682.16 1722.5 2679.4 1719.29 2678.85 1718.76 2676.26 1716.62 2677.06 1717.48 2675.59 1715.4 2675.49 1715.27 2673.52 1712.69 2672.68 1711.85 2670.75 1710.38 2671.88 1711.65 2670.35 1709.06 2669.78 1708.29 2667.79 1706.15 2667.79 1706.15 2665.81 1704.02 2666.38 1704.79 2664.85 1702.19 2663.71 1700.91 2661.8 1699.45 2662.64 1700.29 2660.66 1697.71 2660.76 1697.85 2659.3 1695.77 2658.9 1695.29 2656.3 1692.54 2656.95 1693.43 2655.42 1690.68 2654.8 1689.82 2652.86 1687.74 2653.14 1688.06 2651.16 1685.48 2650.77 1685.04 2648.08 1682.34 2648.42 1682.73 2646.13 1679.83 2645.53 1679.21 2642.33 1676.46 2643.26 1677.57 2641.73 1674.98 2641.73 1674.98C2641.34 1674.33 2640.8 1673.79 2640.16 1673.41L2637.56 1671.87 2638.73 1672.88 2636.59 1670.28 2635.33 1669.22 2632.58 1667.69 2633.47 1668.34 2630.72 1665.75 2629.83 1665.1 2627.09 1663.56 2627.98 1664.21 2625.23 1661.62 2624.34 1660.97 2621.59 1659.43 2622.48 1660.09 2619.74 1657.49 2619.08 1656.98 2615.55 1654.72 2615.79 1654.89 2612.85 1652.72 2612.84 1652.71 2607.31 1648.66 2606.9 1648.39 2603.66 1646.52 2604.07 1646.79 2598.54 1642.74 2598.55 1642.75 2595.61 1640.58 2595.5 1640.51 2591.19 1637.53 2591.72 1637.95 2588.77 1635.18 2588.25 1634.75 2583.94 1631.77 2584.47 1632.2 2581.53 1629.42 2581 1629 2576.69 1626.02 2577.22 1626.44 2574.28 1623.67 2574.03 1623.45 2570.5 1620.59 2570.84 1620.9 2568.1 1618.15 2568.41 1618.49 2565.54 1614.97 2564.95 1614.36 2562.18 1612.03 2563.01 1612.96 2560.76 1609.59 2560.32 1609.03 2558.33 1606.89 2558.83 1607.53 2557.5 1605.45 2557.42 1605.33 2556.11 1603.41 2555.58 1602.77 2554.33 1601.52 2554.33 1601.52 2553.08 1600.27 2553.82 1601.26 2553.13 1600.01 2553.13 1600.01C2552.77 1599.37 2552.26 1598.82 2551.64 1598.42L2550.56 1597.73 2552.58 1600.93 2552.45 1599.87 2552.45 1599.87C2552.34 1599.05 2552.01 1598.27 2551.49 1597.62L2550.97 1596.97 2551.01 1597.02 2550.51 1596.38 2549.94 1595.78 2546.67 1592.9 2546.6 1592.84 2542.17 1589.1 2542.26 1589.18 2535.18 1582.88 2535.53 1583.24 2528.22 1575.08 2528.1 1574.96 2523.01 1569.69 2522.97 1569.66 2517.78 1564.42 2517.78 1564.42 2509.68 1556.26 2509.66 1556.24 2504.48 1551.08 2504.43 1551.03 2499.38 1546.16 2499.22 1546.01 2493.1 1540.68 2493.12 1540.7 2486.29 1534.65 2486.2 1534.58 2480.08 1529.45 2480.08 1529.44 2473.96 1524.31 2474.01 1524.36 2468.14 1519.27 2467.88 1519.06 2462.24 1514.88 2462.62 1515.19 2457.52 1510.46 2457.35 1510.31 2452.56 1506.31 2452.67 1506.4 2448.15 1502.38 2448.78 1503.08 2445.61 1498.74 2444.97 1498.04 2440.45 1494.02 2440.64 1494.2 2436.76 1490.31 2436.94 1490.5 2432.92 1486 2432.79 1485.86 2426.94 1479.84 2426.95 1479.85 2422.74 1475.49 2422.98 1475.75 2417.62 1469.23 2417.14 1468.73 2412.62 1464.71 2413.03 1465.13 2408.97 1460.4 2408.49 1459.93 2403.76 1455.86 2403.95 1456.03 2399.09 1451.33 2399.14 1451.39 2395.26 1447.5 2394.81 1447.11 2389.38 1442.97 2389.94 1443.48 2385.69 1438.93 2384.76 1438.17 2379.31 1434.83 2380.08 1435.43 2375.21 1430.73 2374.69 1430.29 2370.14 1427.07 2370.66 1427.51 2365.79 1422.81 2365.27 1422.37 2360.72 1419.15 2360.98 1419.35 2356.3 1415.49 2356.55 1415.72 2352.71 1412.04 2352.26 1411.67 2347.92 1408.49 2348.89 1409.46 2345.72 1405.13 2345.09 1404.43 2340.57 1400.41 2341.05 1400.91 2337.95 1397.15 2337.67 1396.83 2332.99 1392.16 2333.17 1392.35 2327.89 1386.4 2327.96 1386.49 2323.56 1381.26 2323.67 1381.4 2318.48 1374.71 2318.4 1374.61 2314.55 1369.93 2314.75 1370.19 2311.53 1365.64 2311.33 1365.38 2307.47 1360.7 2307.25 1360.45 2303.58 1356.61 2303.96 1357.06 2300.78 1352.72 2300.15 1352.02 2295.63 1348 2296.31 1348.76 2293.09 1344.21 2292.67 1343.7 2288.93 1339.8 2289.1 1339.99 2285.28 1335.5 2285.32 1335.56 2282.22 1331.79 2281.99 1331.52 2277.28 1326.66 2277.72 1327.18 2274.5 1322.63 2273.82 1321.88 2269.3 1317.85 2269.94 1318.55 2266.76 1314.22 2266.13 1313.52 2261.63 1309.51 2262.04 1309.94 2257.98 1305.21 2257.75 1304.97 2253.82 1301.03 2253.98 1301.2 2247.97 1294.53 2247.87 1294.42 2243.59 1289.97 2243.71 1290.1 2238.42 1284.15 2238.48 1284.22 2234.65 1279.73 2234.78 1279.89 2231.89 1276.16 2232.08 1276.42 2229.07 1271.92 2229.07 1271.92 2226.06 1267.42 2225.87 1267.16 2222.98 1263.44 2223.13 1263.64 2220.15 1259.33 2220 1259.13 2217.11 1255.41 2217.11 1255.41 2214.22 1251.69 2214.37 1251.88 2211.39 1247.58 2210.96 1247.05 2208.19 1244.11 2208.41 1244.36 2205.55 1240.84 2205.24 1240.49 2202.49 1237.75 2202.8 1238.09 2199.94 1234.56 2199.34 1233.96 2196.57 1231.62 2197.41 1232.56 2195.15 1229.18 2194.71 1228.63 2192.72 1226.49 2193.44 1227.52 2192.06 1224.77 2191.34 1223.74 2189.35 1221.6 2190.11 1222.72 2189.19 1220.79 2188.39 1219.63 2186.62 1217.76 2186.93 1218.13 2186.29 1217.3 2185.22 1216.29 2182.54 1214.51 2182.07 1214.23 2179.07 1212.73 2179.12 1212.76 2174.62 1210.41 2175.4 1210.93 2170.71 1207.07 2170.77 1207.12 2161.85 1199.53 2162.06 1199.72 2157.07 1194.89 2156.85 1194.69 2148.18 1187.35 2148.35 1187.51 2145.41 1184.73 2144.89 1184.31 2140.58 1181.33 2141.11 1181.75 2138.16 1178.98 2137.91 1178.76 2134.39 1175.9 2134.32 1175.84 2131.57 1173.7 2131.89 1173.98 2129.15 1171.38 2128.82 1171.11 2126.08 1168.97 2126.49 1169.33 2123.74 1166.59 2121 1163.84 2121 1163.84 2118.25 1161.09 2118.25 1161.09 2115.51 1158.35 2115.51 1158.35 2112.76 1155.6 2112.42 1155.29 2108.89 1152.43 2109.14 1152.65 2106.2 1149.87 2105.95 1149.65 2102.42 1146.79 2102.76 1147.1 2100.02 1144.35 2100.02 1144.35 2097.27 1141.61 2097.27 1141.61 2094.53 1138.86 2094.53 1138.86 2091.78 1136.12 2091.44 1135.81 2087.91 1132.94 2088.16 1133.16 2085.22 1130.39 2085.28 1130.45 2082.36 1127.58 2082.48 1127.71 2079.88 1124.96 2080.09 1125.2 2077.34 1121.83 2077.04 1121.51 2074.14 1118.61 2070.78 1115.25 2071.15 1115.66 2069.01 1112.91 2068.73 1112.59 2066.13 1109.85 2066.79 1110.73 2065.25 1107.99 2064.6 1107.1 2062.01 1104.35 2062.28 1104.67 2060.14 1101.93 2059.36 1101.15 2056.62 1099.01 2056.94 1099.29 2054.19 1096.69 2053.87 1096.42 2051.13 1094.28 2051.54 1094.64 2048.79 1091.89 2048.79 1091.89 2046.05 1089.15 2045.7 1088.84 2042.18 1085.98 2042.43 1086.2 2039.48 1083.42 2039.23 1083.2 2035.71 1080.34 2036.05 1080.65 2033.31 1077.9 2030.56 1075.16 2030.22 1074.85 2026.69 1071.98 2026.94 1072.2 2024 1069.43 2023.75 1069.21 2020.22 1066.35 2020.56 1066.66 2017.82 1063.91 2017.82 1063.91 2012.96 1059.05 2012.67 1058.78 2008.62 1055.4 2009.06 1055.82 2003.89 1050.16 2003.23 1049.56 1998.9 1046.4 1999.6 1047.03 1995.58 1042.51 1995.08 1042.04 1991.32 1038.93 1991.88 1039.48 1988.05 1034.99 1987.88 1034.8 1984.14 1030.9 1984.36 1031.15 1981.26 1027.38 1980.97 1027.06 1976.3 1022.39 1976.3 1022.39 1973.31 1019.4 1973.31 1019.4 1968.64 1014.73 1968.93 1015.05 1965.82 1011.28 1965.34 1010.78 1960.82 1006.76 1961.19 1007.13 1957.17 1002.61 1956.75 1002.19 1952.02 998.125 1952.49 998.6 1948.42 993.87 1948.25 993.678 1943.55 988.81 1943.65 988.918 1937.4 982.004 1937.24 981.841 1931.78 976.381 1931.94 976.545 1925.69 969.63 1925.59 969.522 1920.89 964.655 1921.26 965.089 1917.02 959.396 1916.67 958.983 1912.67 954.792 1912.99 955.168 1907.97 948.569 1907.93 948.515 1904.78 944.507 1904.7 944.4 1899.82 938.569 1900.04 938.854 1896.82 934.306 1896.63 934.049 1892.77 929.364 1892.77 929.364 1888.92 924.688 1889.12 924.944 1885.9 920.398 1885.71 920.141 1881.86 915.465 1882.12 915.821 1879.12 911.318 1878.85 910.962 1875.01 906.286 1875.2 906.543 1871.99 901.997 1871.79 901.74 1867.94 897.063 1868.09 897.246 1863.86 891.523 1863.49 891.084 1859.51 886.941 1859.79 887.263 1855.4 881.706 1854.81 881.091 1851.25 878.033 1851.81 878.605 1848.94 875.078 1846.08 871.551 1845.86 871.3 1843.08 868.359 1843.3 868.61 1840.44 865.083 1840.44 865.083 1837.58 861.556 1837.36 861.306 1834.58 858.364 1834.8 858.615 1831.94 855.088 1831.22 854.38 1828.47 852.24 1829.17 852.922 1827.04 850.335 1826.87 850.136 1824.88 847.998 1825.38 848.645 1824.06 846.571 1823.98 846.443 1822.67 844.527 1822.67 844.527C1822.11 843.706 1821.29 843.096 1820.34 842.793L1818.16 842.098 1819.4 842.72 1815.33 839.806 1814.86 839.514 1809.45 836.575 1809.99 836.925 1802.92 831.621 1803.15 831.809 1796.12 825.764 1796.25 825.886 1788.82 818.944 1788.84 818.962 1781.31 811.859 1781.26 811.806 1773.39 804.636 1773.42 804.658 1766.36 798.124 1766.37 798.138 1759.9 792.091 1759.93 792.128 1756.1 788.456 1755.92 788.297 1752.36 785.239 1752.64 785.499 1749.78 782.579 1749.66 782.458 1746.91 779.864 1746.59 779.587 1743.84 777.447 1741.1 775.307 1740.97 775.212 1738.22 773.224 1738.22 773.224 1735.48 771.235 1735.04 770.953 1732.29 769.419 1732.73 769.701 1729.99 767.712 1729.76 767.562 1727.68 766.237 1727.38 766.06 1724.8 764.692 1725.68 765.306 1724.26 764.04 1723.81 763.685 1721.89 762.375 1721.89 762.375 1719.98 761.065 1721 762.039 1719.53 760.108 1718.25 758.977 1715.66 757.443 1716.45 758.039 1713.75 755.494 1713.14 755.011 1710.93 753.556 1710.81 753.48 1707.68 751.558 1708.89 752.655 1707.42 750.732 1706.59 749.895 1704.66 748.419 1705.1 748.809 1703.13 746.835 1702.94 746.662 1701.53 745.396 1700.19 744.57 1698.27 743.817 1699.6 744.635 1698.35 743.522 1697.55 742.956 1696.3 742.261 1696.65 742.479 1694.74 741.169 1695.19 741.524 1693.77 740.258 1693.32 739.902 1691.4 738.592 1692.04 739.122 1690.79 737.87 1690.79 737.869 1689.54 736.618 1689.54 736.618 1688.29 735.367 1688.28 735.366 1687.03 734.114 1686.4 733.586 1684.48 732.276 1684.93 732.631 1683.52 731.365 1683.06 731.01 1681.15 729.7 1681.78 730.228 1680.53 728.976 1680.53 728.977 1679.28 727.726 1679.28 727.725 1677.47 725.917 1677.47 725.917 1676.08 724.526 1676.08 724.526 1674.27 722.718 1674.27 722.718 1673.02 721.467 1673.02 721.467 1671.77 720.215 1672.3 720.852 1670.99 718.936 1670.63 718.482 1669.37 717.064 1669.72 717.519 1668.41 715.603 1667.88 714.965 1666.63 713.714 1667.38 714.703 1666.68 713.451 1666.59 713.292 1665.42 711.376 1665.6 711.704 1664.89 710.286 1664.58 709.766 1663.28 707.85 1662.75 707.212 1661.49 705.961 1662.24 706.95 1661.55 705.698 1661.45 705.538 1660.28 703.622 1659.92 703.111 1659.21 702.25 1659.36 702.439 1658.05 700.663 1658.05 700.663C1657.67 700.147 1657.18 699.719 1656.62 699.408L1655.37 698.713 1657.1 700.449 1656.41 699.197 1656.41 699.197C1656.04 698.536 1655.51 697.979 1654.87 697.578L1653.76 696.883 1655.21 698.351 1654.56 697.288 1654.56 697.288C1654.15 696.609 1653.56 696.052 1652.86 695.676L1651.66 695.026 1652.7 695.8 1651.5 694.606 1651.5 694.606 1650.32 693.421 1650.32 693.421 1649.08 692.185 1648.06 691.418 1646.84 690.758 1647.67 691.339 1646.46 690.268 1646.46 690.268C1644.61 688.633 1641.79 688.806 1640.15 690.653 1638.52 692.5 1638.69 695.322 1640.54 696.957 1641.55 697.85 1642.91 698.24 1644.24 698.017L1645.02 697.887 1646.26 697.484 1647.32 696.961 1645.34 697.425 1648.32 697.425 1651.05 697.425 1653.78 697.425 1660.14 697.425 1663.78 697.425 1670.14 697.425 1672.87 697.425 1675.6 697.425 1678.33 697.425 1681.05 697.425 1684.33 697.425 1686.53 697.425 1688.97 697.425 1690.87 697.425 1692.27 697.425 1694.83 697.425 1696.23 697.425 1698.79 697.425 1700.86 697.425 1703.58 697.425 1706.86 697.425 1709.72 697.425 1713 697.425 1715.72 697.425 1718.45 697.425 1721.94 697.425 1724.87 697.425 1729.16 697.425 1732.86 697.425 1737.34 697.425 1741.83 697.425 1746.31 697.425 1746.97 697.375 1751.46 696.703 1750.96 696.749 1755.45 696.581 1755.94 696.534 1760.42 695.862 1759.76 695.911 1763.46 695.911 1767.75 695.911 1768.55 695.839 1772.25 695.167 1771.66 695.234 1775.36 695.066 1776.5 694.866 1780.78 693.521 1779.7 693.718 1782.63 693.55 1783.06 693.503 1787.35 692.831 1786.66 692.885 1789.58 692.885 1790.44 692.802 1793.28 692.245 1792.67 692.322 1795.23 692.183 1796.15 692.035 1798.21 691.479 1797.05 691.633 1799.11 691.633 1801.01 691.633 1802.91 691.633 1804.31 691.633 1806.21 691.633 1808.1 691.633 1809.5 691.633 1812.06 691.633 1813.09 691.514 1815.7 690.9 1814.91 691.012 1817.78 690.859 1818.56 690.746 1821.17 690.132 1820.15 690.251 1822.71 690.251 1824.78 690.251 1827.5 690.251 1830.23 690.251 1832.96 690.251 1835.02 690.251 1837.58 690.251 1839.65 690.251 1841.71 690.251 1844.27 690.251 1845.55 690.065 1847.61 689.45 1846.59 689.629 1849.31 689.476 1849.83 689.416 1853.34 688.801 1852.57 688.868 1855.49 688.868 1859.78 688.868 1866.38 688.868 1871.59 688.868 1871.98 688.851 1880.27 688.12 1880.05 688.134 1884.76 687.951 1885.1 687.925 1891.4 687.194 1891.45 687.187 1897.05 686.465 1896.6 686.5 1903.12 686.319 1904.07 686.189 1909.67 684.794 1909.04 684.903 1917.33 684.063 1917.59 684.029 1922.8 683.188 1922.61 683.214 1933.98 681.869 1933.59 681.898 1939.07 681.729 1939.32 681.715 1947.01 681.042 1946.62 681.059 1950.91 681.059 1954.62 681.059 1959.1 681.059 1963.58 681.059 1967.29 681.059 1971.57 681.059 1974.5 681.059 1978.01 681.059 1980.73 681.059 1983.46 681.059 1985.52 681.059 1987.42 681.059 1988.65 681.059 1989.88 681.059 1991.11 681.059 1992.33 681.059 1993.57 681.059 1994.8 681.059 1996.03 681.059 1997.27 681.059 1998.5 681.059 1999.73 681.059 2000.97 681.059 2002.2 681.059 2004.1 681.059 2006.16 681.059 2008.89 681.059 2011.38 681.059 2015.74 681.059 2019.43 681.059 2024.82 681.059 2032.51 681.059 2037.02 681.059 2043.73 681.059 2046.46 681.059 2049.18 681.059 2051.91 681.059 2054.64 681.059 2056.7 681.059 2059.26 681.059 2060.66 681.059 2062.56 681.059 2064.46 681.059 2065.86 681.059 2068.42 681.059 2070.48 681.059 2072.54 681.059 2075.11 681.059 2077.17 681.059 2079.23 681.059 2081.79 681.059 2083.19 681.059 2085.09 681.059 2086.32 681.059 2087.56 681.059 2089.45 681.059 2090.85 681.059 2092.75 681.059 2094.65 681.059 2096.71 681.059 2099.44 681.059 2102.17 681.059 2104.89 681.059 2108.4 681.059 2111.32 681.059 2114.83 681.059 2118.34 681.059 2121.26 681.059 2124.77 681.059 2128.28 681.059 2131.98 681.059 2135.69 681.059 2139.97 681.059 2143.68 681.059 2149.37 681.059 2154.16 681.059 2159.08 681.059 2163.36 681.059 2167.07 681.059 2170.76 681.059 2174.27 681.059 2177.77 681.059 2181.9 681.059 2187.71 681.059 2192.15 681.059 2197.65 681.059 2200.57 681.059 2204.86 681.059 2207.78 681.059 2212.07 681.059 2215.76 681.059 2220.23 681.059 2223.92 681.059 2228.21 681.059 2231.91 681.059 2235.62 681.059 2239.91 681.059 2242.83 681.059 2246.34 681.059 2249.84 681.059 2252.77 681.059 2257.06 681.059 2260.76 681.059 2264.46 681.059 2268.75 681.059 2272.45 681.059 2276.94 681.059 2281.42 681.059 2285.9 681.059 2290.39 681.059 2294.87 681.059 2299.36 681.059 2303.84 681.059 2308.32 681.059 2312.03 681.059 2319.21 681.059 2323.64 681.059 2331.02 681.059 2335.51 681.059 2340.89 681.059 2345.6 681.059 2350.99 681.059 2354.7 681.059 2358.98 681.059 2361.91 681.059 2365.42 681.059 2368.14 681.059 2370.21 681.059 2372.77 681.059 2374.17 681.059 2376.73 681.059 2378.12 681.059 2380.68 681.059 2382.07 681.059 2383.97 681.059 2385.34 680.842 2387.24 680.227 2386.35 680.418 2387.75 680.264 2388.13 680.206 2391.24 679.592 2390.37 679.677 2391.91 679.677 2394.35 679.677 2396.18 679.287 2397.4 678.739 2396.07 679.101 2397.3 678.964 2398.06 678.813 2399.94 678.265 2398.69 678.444 2400.09 678.444 2402.64 678.444 2404.29 678.128 2405.69 677.571 2404.28 677.881 2406.84 677.742 2406.84 677.742C2407.53 677.704 2408.2 677.507 2408.81 677.166L2410.87 675.996 2409 676.565 2411.06 676.411 2412.66 675.984 2415.22 674.755 2413.62 675.183 2415.68 675.029 2416.63 674.856 2418.69 674.241 2417.42 674.427 2419.74 674.427 2421.75 674.427 2424.25 674.427 2426.97 674.427 2430.48 674.427 2438.24 674.427 2442.95 674.427 2450.52 674.427 2454.02 674.427 2456.94 674.427 2460.45 674.427 2463.96 674.427 2466.88 674.427 2470.39 674.427 2473.12 674.427 2475.84 674.427 2478.56 674.427 2481.29 674.427 2484.79 674.427 2487.71 674.427 2491.22 674.427 2493.95 674.427 2496.68 674.427 2500.62 674.427 2503.65 674.427 2507.59 674.427 2509.65 674.427 2512.21 674.427 2514.27 674.427 2516.34 674.427 2518.9 674.427 2520.96 674.427 2523.69 674.427 2526.42 674.427 2529.15 674.427 2531.87 674.427 2535.38 674.427 2538.3 674.427 2542.59 674.427 2545.51 674.427 2549.02 674.427 2551.75 674.427 2555.26 674.427 2558.18 674.427 2562.47 674.427 2566.17 674.427 2569.88 674.427 2575.07 674.427 2579 674.427 2587.29 674.427 2593.39 674.427 2601.9 674.427 2607.51 674.427 2613.8 674.427 2619.42 674.427 2619.95 674.395 2625.56 673.723 2625.15 673.753 2631.45 673.585 2631.96 673.541 2636.67 672.869 2636.04 672.914 2641.42 672.914 2642.02 672.873 2647.41 672.142 2646.99 672.18 2651.7 671.997 2652.04 671.971 2658.33 671.24 2657.82 671.27 2663.43 671.27 2663.96 671.238 2669.58 670.565 2669.17 670.595 2675.46 670.427 2675.87 670.397 2681.49 669.725 2687.1 669.052 2686.69 669.082 2692.98 668.914 2693.5 668.871 2698.21 668.198 2697.57 668.243 2703.87 668.243 2708.58 668.243 2713.19 668.243 2717.47 668.243 2722.39 668.243 2726.4 668.243 2731.12 668.243 2733.84 668.243 2736.57 668.243 2739.3 668.243 2742.03 668.243 2744.09 668.243 2746.65 668.243 2748.72 668.243 2751.99 668.243 2754.86 668.243 2758.13 668.243 2760.86 668.243 2763.59 668.243 2766.31 668.243 2769.04 668.243 2771.77 668.243 2773.83 668.243 2776.39 668.243 2778.46 668.243 2781.18 668.243 2783.91 668.243 2787.42 668.243 2790.34 668.243 2794.63 668.243 2798.33 668.243 2799 668.194 2803.48 667.521 2803.55 667.51 2808.94 666.611 2809.59 666.454 2814.3 664.926 2814.04 665.002 2820.33 663.372 2820.43 663.346 2826.04 661.76 2825.92 661.793 2832.44 660.149 2832.44 660.149 2838.96 658.505 2839.37 658.381 2847.88 655.342 2847.6 655.432 2854.62 653.439 2855.03 653.301 2862.63 650.32 2862.12 650.485 2868.42 648.856 2869.18 648.582 2873.89 646.39 2873.38 646.591 2878.77 644.854 2878.82 644.837 2883.3 643.332 2883.16 643.376 2887.65 642.031 2887.19 642.143 2891.67 641.302 2891.84 641.268 2895.54 640.427 2895.89 640.333 2900.18 638.988 2899.04 639.188 2902.75 639.02 2903.21 638.975 2907.69 638.302 2907.03 638.352 2911.51 638.352 2915.99 638.352 2919.7 638.352 2923.99 638.352 2927.69 638.352 2931.39 638.352 2935.68 638.352 2939.38 638.352 2943.87 638.352 2947.57 638.352 2951.86 638.352 2954.78 638.352 2959.07 638.352 2961.99 638.352 2965.49 638.352 2969.43 638.352 2972.45 638.352 2976.39 638.352 2979.89 638.352 2982.81 638.352 2986.31 638.352 2989.82 638.352 2992.74 638.352 2997.03 638.352 3000.74 638.352 3005.22 638.352 3009.7 638.352 3014.19 638.352 3018.67 638.352 3022.37 638.352 3026.66 638.352 3030.37 638.352 3034.07 638.352 3038.36 638.352 3041.28 638.352 3044.79 638.352 3047.52 638.352 3050.13 638.352 3052.16 638.352 3053.94 638.352 3055.18 638.352 3056.37 638.352 3057.59 638.352 3058.78 638.352 3060.01 638.352 3061.25 638.352 3062.45 638.352 3063.64 638.352 3063.78 638.352 3063.78 638.352C3066.25 638.352 3068.25 636.352 3068.25 633.886 3068.25 631.419 3066.25 629.42 3063.78 629.42 3063.17 629.42 3062.56 629.547 3062 629.794L3060.61 630.4 3061.2 630.188 3058.26 631.004 3057.35 631.369 3051.38 634.561 3051.24 634.637 3044.72 638.419 3044.84 638.354 3038.29 641.897 3038.05 642.035 3031.05 646.393 3030.96 646.455 3024.09 650.981 3023.94 651.084 3018.01 655.35 3017.94 655.398 3010.88 660.677 3010.88 660.676 3003.8 665.961 3003.61 666.113 2997.52 671.201 2997.73 671.04 2992.04 675.258 2991.6 675.627 2986.75 680.293 2987.19 679.924 2981.5 684.147 2981.32 684.285 2976.35 688.377 2976.33 688.394 2970.49 693.251 2970.69 693.095 2965 697.317 2964.79 697.478 2958.68 702.591 2958.87 702.44 2951.8 707.719 2951.81 707.718 2944.73 713.003 2944.49 713.193 2937.43 719.261 2937.6 719.118 2930.52 724.602 2930.53 724.599 2922.66 730.675 2922.77 730.596 2915.49 735.883 2915.63 735.79 2907.77 741.077 2907.59 741.204 2900.51 746.491 2900.4 746.575 2891.04 754.021 2891.07 754.002 2882.34 760.85 2882.33 760.855 2873.85 767.535 2873.85 767.539 2864.89 774.613 2864.76 774.725 2858.55 780.034 2858.67 779.935 2850.51 786.441 2850.19 786.727 2843.11 793.591 2843.48 793.267 2836.4 798.751 2836.04 799.068 2829.92 804.969 2830.07 804.834 2823.23 810.866 2823.25 810.843 2817.13 816.153 2817.15 816.136 2810.07 822.212 2810.07 822.212 2802.99 828.288 2803.17 828.146 2796.09 833.63 2795.91 833.772 2788.83 839.848 2789.07 839.661 2782.02 844.931 2782.02 844.93 2774.95 850.212 2775.21 850.032 2768.42 854.389 2768.22 854.525 2761.2 859.584 2761.25 859.552 2753.39 865.072 2753.08 865.318 2746.7 870.717 2746.8 870.635 2740.08 876.003 2739.77 876.274 2734.9 880.957 2735.09 880.782 2730.36 884.83 2730.36 884.83 2725.63 888.878 2725.44 889.053 2720.57 893.736 2720.84 893.499 2717.07 896.584 2716.75 896.875 2712.08 901.528 2712.08 901.525 2709.09 904.493 2709.09 904.495 2705.38 908.186 2705.38 908.183 2702.64 910.911 2702.32 911.256 2699.46 914.764 2700.02 914.192 2696.46 917.231 2695.99 917.706 2692.93 921.243 2693.16 920.998 2689.51 924.622 2689.43 924.713 2686.65 927.636 2686.22 928.163 2683.24 932.452 2683.39 932.251 2680.5 935.954 2680.8 935.607 2677.13 939.427 2676.85 939.743 2672.46 945.273 2673.03 944.675 2669.18 948.008 2668.72 948.464 2664.64 953.182 2664.56 953.281 2661.7 956.781 2661.93 956.528 2659.15 959.451 2658.93 959.703 2656.07 963.211 2656.38 962.866 2653.63 965.593 2653.27 966.005 2651.13 968.732 2651.41 968.411 2648.81 971.139 2648.53 971.46 2646.39 974.188 2646.76 973.776 2644.01 976.504 2644.01 976.503 2641.27 979.231 2640.95 979.576 2638.09 983.084 2638.03 983.159 2635.14 986.863 2635.44 986.516 2631.78 990.327 2631.4 990.777 2628.23 995.093 2628.86 994.394 2624.35 998.388 2623.93 998.814 2619.87 1003.53 2619.87 1003.53 2615.8 1008.24 2615.97 1008.05 2611.27 1012.9 2610.95 1013.27 2606.51 1019.01 2606.84 1018.63 2601.85 1023.77 2601.52 1024.15 2597.08 1029.89 2597.39 1029.52 2593.67 1033.39 2593.22 1033.94 2590.24 1038.23 2590.67 1037.7 2587.9 1040.62 2587.38 1041.28 2585.12 1044.79 2585.35 1044.48 2582.64 1047.99 2582.58 1048.05 2580.41 1050.98 2580.24 1051.22 2577.99 1054.73 2578.51 1054.07 2575.91 1056.8 2575.39 1057.46 2573.14 1060.97 2573.65 1060.31 2570.88 1063.23 2570.66 1063.48 2567.79 1066.99 2568.11 1066.64 2565.36 1069.37 2565.36 1069.37 2562.62 1072.09 2562.62 1072.09 2559.88 1074.82 2559.56 1075.16 2556.72 1078.66 2556.94 1078.4 2554.17 1081.32 2553.95 1081.58 2551.09 1085.07 2551.41 1084.73 2548.66 1087.46 2548.66 1087.46 2545.91 1090.18 2545.6 1090.53 2542.74 1094.04 2542.96 1093.79 2540.18 1096.71 2539.96 1096.96 2537.1 1100.47 2537.41 1100.12 2534.67 1102.85 2534.44 1103.1 2530.35 1107.82 2530.5 1107.66 2527.42 1110.89 2527.28 1111.04 2523.2 1115.76 2523.43 1115.52 2520.69 1118.25 2520.69 1118.24 2517.95 1120.97 2517.95 1120.97 2515.2 1123.7 2515.2 1123.7 2512.46 1126.42 2512.15 1126.76 2509.29 1130.27 2509.51 1130.02 2506.74 1132.93 2506.52 1133.18 2503.66 1136.69 2503.97 1136.35 2501.23 1139.07 2501.22 1139.08 2497.51 1142.77 2497.51 1142.77 2494.53 1145.73 2494.53 1145.74 2490.82 1149.43 2490.82 1149.42 2488.07 1152.15 2487.76 1152.5 2484.9 1156.01 2485.46 1155.43 2481.9 1158.47 2481.2 1159.22 2478.03 1163.54 2478.8 1162.73 2472.29 1168.05 2471.57 1168.79 2467.85 1173.65 2468.37 1173.08 2461.68 1179.25 2461.36 1179.57 2456.33 1185.25 2456.52 1185.05 2451.37 1190.18 2451.37 1190.18 2445.49 1196.04 2445.49 1196.04 2440.58 1200.94 2440.58 1200.94 2434.7 1206.79 2434.93 1206.59 2428.81 1211.89 2428.64 1212.05 2422.52 1217.95 2422.67 1217.82 2415.83 1223.85 2415.63 1224.04 2410.47 1229.17 2410.47 1229.17 2403.63 1236 2403.63 1235.99 2398.48 1241.13 2398.48 1241.13 2391.64 1247.95 2391.64 1247.95 2386.49 1253.09 2386.49 1253.09 2380.61 1258.94 2380.61 1258.94 2375.7 1263.84 2375.7 1263.84 2370.78 1268.73 2370.78 1268.73 2365.87 1273.63 2365.87 1273.63 2360.96 1278.51 2360.96 1278.51 2356.05 1283.41 2356.05 1283.41 2348.96 1290.47 2348.96 1290.47 2343.5 1295.91 2336.41 1302.98 2336.41 1302.98 2331.49 1307.87 2331.26 1308.12 2327.2 1312.83 2327.37 1312.64 2322.67 1317.49 2322.5 1317.68 2318.44 1322.38 2318.67 1322.14 2313.76 1327.03 2314.01 1326.8 2309.28 1330.84 2308.86 1331.26 2304.83 1335.76 2305.2 1335.39 2300.69 1339.39 2300.21 1339.89 2297.1 1343.64 2297.39 1343.32 2292.72 1347.97 2292.72 1347.97 2289.74 1350.94 2289.73 1350.94 2286.02 1354.63 2286.03 1354.63 2283.28 1357.36 2283.7 1356.99 2280.95 1359.11 2280.63 1359.39 2277.88 1361.97 2278.37 1361.56 2276.29 1363.02 2275.71 1363.51 2273.13 1366.07 2273.14 1366.06 2271.16 1368.01 2271.16 1368.01 2269.1 1370.05 2269.73 1369.53 2267.92 1370.77 2268.57 1370.4 2267.38 1370.94 2266.1 1371.83 2264.09 1373.82 2264.8 1373.24 2261.97 1375.07 2260.79 1376.18 2257.62 1380.5 2258.3 1379.76 2249.6 1387.26 2249.22 1387.63 2244.11 1393.22 2244.25 1393.07 2236 1401.29 2235.94 1401.34 2231.24 1406.19 2231.07 1406.38 2227 1411.09 2227.23 1410.85 2222.32 1415.74 2222.09 1415.99 2218.02 1420.7 2217.96 1420.77 2214.1 1425.44 2213.84 1425.8 2210.83 1430.28 2211.32 1429.67 2207.65 1433.49 2207.01 1434.34 2204.5 1438.66 2205.07 1437.89 2201.56 1441.7 2200.89 1442.66 2198.56 1447.13 2198.81 1446.71 2195.8 1451.19 2196.07 1450.84 2192.22 1455.5 2192.02 1455.75 2188.8 1460.28 2189.02 1460 2184.15 1465.81 2184.13 1465.83 2180.02 1470.78 2179.88 1470.96 2175.64 1476.64 2176.01 1476.2 2171.31 1481.05 2171.13 1481.24 2167.07 1485.95 2167.3 1485.71 2162.38 1490.6 2162.15 1490.85 2158.09 1495.56 2158.51 1495.13 2153.99 1499.14 2153.35 1499.83 2150.18 1504.15 2151.15 1503.19 2146.81 1506.34 2146.06 1507.03 2143 1510.57 2143.49 1510.08 2139 1513.89 2138.75 1514.13 2135.76 1517.1 2136.02 1516.86 2131.53 1520.67 2131.36 1520.81 2128.42 1523.57 2128.59 1523.42 2124.1 1527.23 2123.83 1527.47 2119.88 1531.4 2119.88 1531.4 2115.93 1535.33 2115.7 1535.58 2110.86 1541.2 2111.01 1541.03 2107.02 1545.2 2106.83 1545.41 2102.7 1550.3 2102.65 1550.37 2096.52 1557.92 2096.69 1557.73 2093.33 1561.43 2092.86 1562.06 2088.24 1569.43 2088.43 1569.15 2085.71 1572.85 2085.48 1573.2 2083.25 1576.9 2083.41 1576.65 2080.43 1580.94 2080.58 1580.74 2077.69 1584.45 2077.4 1584.85 2075.12 1588.55 2075.19 1588.44 2072.36 1592.73 2072.29 1592.84 2070.01 1596.54 2070.1 1596.4 2067.09 1600.88 2067.09 1600.88 2064.08 1605.37 2064.08 1605.37 2061.07 1609.85 2061.34 1609.5 2057.49 1614.16 2057.29 1614.42 2054.07 1618.95 2054.49 1618.44 2050.75 1622.33 2050.58 1622.52 2046.75 1626.99 2046.71 1627.05 2043.6 1630.79 2043.82 1630.55 2040.08 1634.43 2039.91 1634.62 2036.08 1639.1 2036.04 1639.15 2032.93 1642.9 2033.16 1642.65 2029.42 1646.54 2029.26 1646.71 2025.18 1651.43 2025.12 1651.5 2021.95 1655.31 2022.17 1655.06 2018.18 1659.2 2017.93 1659.48 2015.07 1662.98 2015.07 1662.99 2012.2 1666.49 2012.43 1666.24 2009.65 1669.16 2009.22 1669.69 2006.24 1673.98 2006.67 1673.45 2003.9 1676.38 2003.47 1676.9 2000.49 1681.19 2000.94 1680.64 1997.2 1684.53 1996.98 1684.78 1993.87 1688.53 1993.92 1688.47 1990.1 1692.94 1990.01 1693.04 1986.1 1697.89 1985.89 1698.17 1982.63 1702.94 1982.89 1702.59 1978.02 1708.41 1977.86 1708.6 1973.62 1714.28 1973.98 1713.85 1969.03 1718.99 1968.7 1719.36 1963.44 1726.18 1963.51 1726.1 1956.02 1735.33 1956.05 1735.29 1950.33 1742.17 1950.22 1742.31 1942.6 1752.27 1942.93 1751.89 1937.98 1757.02 1937.85 1757.16 1931.8 1763.98 1931.77 1764.01 1927.46 1768.97 1927.63 1768.78 1921.97 1774.59 1921.79 1774.79 1917.72 1779.5 1917.95 1779.26 1913.03 1784.15 1913.03 1784.15 1908.12 1789.05 1908.12 1789.05 1903.21 1793.94 1903.46 1793.71 1898.73 1797.76 1898.53 1797.94 1893.67 1802.62 1893.93 1802.38 1890.16 1805.47 1889.6 1806.02 1885.77 1810.49 1886.31 1809.96 1883.53 1812.28 1882.99 1812.81 1880.13 1816.17 1880.8 1815.53 1878.05 1817.65 1877.64 1818.02 1874.89 1820.75 1874.89 1820.74 1872.81 1822.81 1872.42 1823.25 1870.44 1825.81 1870.72 1825.49 1868.79 1827.55 1868.42 1828.01 1866.94 1830.07 1867.43 1829.5 1864.85 1832.06 1864.85 1832.05 1862.16 1834.72 1861.81 1835.11 1859.51 1837.99 1859.79 1837.68 1856.58 1841.01 1856.04 1841.69 1853.78 1845.2 1854.28 1844.57 1852.17 1846.83 1851.74 1847.36 1848.93 1851.48 1849.35 1850.95 1847.24 1853.21 1847.04 1853.43 1844.18 1856.94 1844.49 1856.6 1841.75 1859.32 1841.75 1859.32 1839 1862.05 1839 1862.05 1836.26 1864.78 1836.26 1864.78 1833.51 1867.51 1833.2 1867.85 1830.35 1871.33 1830.91 1870.76 1827.36 1873.8 1826.66 1874.55 1823.51 1878.83 1824.48 1877.86 1820.15 1881.02 1819.45 1881.65 1815.43 1886.15 1816.19 1885.47 1811.65 1888.67 1811.12 1889.1 1806.25 1893.79 1806.78 1893.35 1802.23 1896.55 1801.7 1896.99 1796.84 1901.67 1797.36 1901.24 1792.81 1904.44 1792.6 1904.6 1788.7 1907.7 1788.46 1907.91 1785.54 1910.6 1786.32 1910.03 1783.73 1911.53 1782.45 1912.66 1780.97 1914.58 1782.01 1913.6 1780.1 1914.89 1780.45 1914.68 1779.2 1915.36 1778.4 1915.92 1777.15 1917.02 1777.94 1916.46 1776.69 1917.14 1777.33 1916.86 1775.42 1917.54 1774.19 1918.21 1772.77 1919.31 1774.27 1918.55 1771.69 1919.29 1770.55 1919.8 1768.47 1921.11 1768.85 1920.89 1766.11 1922.26 1766.11 1922.26 1763.36 1923.62 1763.11 1923.75 1759.82 1925.66 1760 1925.56 1757.12 1927.05 1757.2 1927.01 1754.58 1928.3 1754.25 1928.48 1752.34 1929.63 1754.16 1929.01 1752.91 1929.15 1751.6 1929.5 1750.35 1930.05 1750.35 1930.05 1749.1 1930.6 1749.27 1930.52 1747.36 1931.27 1747 1931.43 1745.58 1932.12 1745.65 1932.09 1743.07 1933.3 1743.45 1933.15 1741.36 1933.9 1741.22 1933.96 1737.69 1935.38 1736.87 1935.82 1733.93 1937.8 1734.6 1937.43 1731.08 1939 1730.19 1939.53 1726.67 1942.21 1727.3 1941.81 1724.36 1943.35 1723.73 1943.76 1720.21 1946.44 1720.36 1946.33 1718.29 1947.78 1717.7 1948.27 1715.12 1950.83 1715.71 1950.34 1713.64 1951.79 1713.59 1951.82 1710.85 1953.79 1710.42 1954.13 1708.28 1956.1 1709.42 1955.34 1706.05 1956.91 1704.62 1957.97 1702.28 1960.56 1703.25 1959.75 1699.72 1961.93 1699.34 1962.2 1696.59 1964.32 1696.27 1964.59 1693.52 1967.17 1693.85 1966.89 1691.1 1969.02 1691.03 1969.07 1687.5 1971.92 1687.67 1971.79 1684.73 1973.94 1684.53 1974.09 1679.78 1978 1679.97 1977.85 1677.58 1979.61 1677.08 1980.04 1673.28 1983.81 1673.87 1983.32 1671.79 1984.78 1671.33 1985.15 1669.24 1987.06 1669.57 1986.79 1667 1988.74 1666.56 1989.12 1665.14 1990.52 1665.14 1990.52 1663.23 1992.41 1663.24 1992.4 1661.98 1993.64 1660.73 1994.87 1660.73 1994.87 1659.48 1996.1 1658.72 1997.09 1658.03 1998.32 1659.58 1996.71 1658.47 1997.4 1658.47 1997.4C1657.87 1997.76 1657.38 1998.26 1657.01 1998.85L1656.36 1999.9 1658.02 1998.33 1656.78 1999.01 1656.43 1999.21 1654.56 2000.46 1654.09 2000.83 1652.67 2002.08 1652.92 2001.87 1650.34 2003.82 1650.48 2003.72 1648.4 2005.18 1647.52 2005.99 1645.38 2008.56 1646.57 2007.56 1643.97 2009.07 1642.69 2010.2 1641.22 2012.11 1642.26 2011.13 1640.35 2012.42 1640.35 2012.42C1639.77 2012.81 1639.29 2013.33 1638.95 2013.94L1638.26 2015.16 1638.84 2014.36 1637.73 2015.59 1637.81 2015.5 1637.16 2016.18 1640.06 2014.81 1639.38 2014.86 1644.04 2018.27 1643.53 2016.14 1643.65 2017.19 1643.65 2014.19 1643.65 2008.78 1643.62 2008.26 1642.83 2001.6 1642.82 2001.53 1641.61 1992.55 1641.61 1992.55 1640.32 1982.96 1640.33 1983.03 1638.96 1971.5 1638.96 1971.49 1637.76 1961.46 1637.76 1961.48 1636.66 1951.92 1636.67 1952.02 1635.94 1944.23 1635.96 1944.54 1635.78 1936.99 1635.76 1936.6 1635.03 1930.1 1635.06 1930.59 1635.06 1924.05 1635.06 1918.42 1635.06 1913.01 1635.06 1908.51 1635.06 1904.79 1635.06 1901.26 1635.06 1898.51 1635.06 1896.43 1635.06 1894.51 1635.06 1893.27 1635.06 1892.02 1635.06 1890.83 1635.06 1889.64 1635.06 1887.78 1635.06 1886.42 1635.06 1883.84 1635.06 1881.75 1635.06 1879.01 1635.06 1876.93 1635.06 1874.35 1635.06 1872.93 1635.06 1870.36 1635.06 1868.28 1635.06 1866.2 1635.06 1863.62 1635.06 1861.54 1635.06 1859.46 1635.06 1856.88 1634.88 1855.61 1634.26 1853.53 1634.43 1854.47 1634.28 1852.39 1634.17 1851.68 1633.56 1849.1 1633.68 1850.13 1633.68 1848.05 1633.68 1845.97 1633.68 1843.4 1633.68 1841.98 1633.68 1839.41 1633.68 1837.33 1633.68 1835.25 1633.68 1832.67 1633.68 1828.58 1633.68 1825.34 1633.68 1820.59 1633.68 1817.06 1633.68 1814.12 1633.68 1810.59 1633.68 1808.51 1633.68 1806.6 1633.68 1805.34 1633.68 1803.43 1633.68 1801.35 1633.68 1798.6 1633.68 1796.52 1633.68 1793.16 1633.68 1790.88 1633.68 1787.35 1633.68 1784.62 1633.68 1781.09 1633.68 1777.38 1633.68 1773.66 1633.68 1770.13 1633.68 1767.38 1633.68 1764.08 1633.68 1761.19 1633.68 1757.89 1633.68 1755.81 1633.68 1752.45 1633.68 1750.84 1633.68 1746.7 1633.68 1744.42 1633.68 1740.11 1633.68 1737.17 1633.68 1732.86 1633.68 1729.14 1633.68 1725.42 1633.68 1721.89 1633.68 1717.14 1633.68 1713.9 1633.68 1708.37 1633.68 1705.43 1633.68 1701.12 1633.68 1696.49 1633.68 1691.77 1633.68 1685.45 1633.68 1680.73 1633.68 1674.44 1633.68 1669.72 1633.64 1670.26 1634.31 1664.88 1634.34 1664.5 1634.5 1659.99 1634.44 1660.62 1635.1 1656.9 1635.17 1656.12 1635.17 1652.59 1635.17 1649.85 1635.17 1647.77 1635.17 1645.2 1635.17 1643.78 1635.17 1641.21 1635.17 1639.13 1635.17 1636.38 1635.17 1633.64 1635.17 1630.89 1635.17 1628.15 1635.17 1626.06 1635.17 1622.93 1635.17 1620.71 1635.17 1618.07 1635.17 1616.15 1635.17 1614.9 1635.17 1613.65 1635.17 1612.4 1635.17 1611.14 1635.17 1609.89 1635.17 1608.64 1635.17 1607.39 1635.17 1605.47 1635.17 1604.06 1635.17 1601.48 1635.17 1600.06 1635.17 1597.48 1635.17 1595.4 1635.17 1592.65 1635.17 1589.9 1635.17 1587.16 1635.17 1584.41 1635.17 1581.67 1635.17 1578.93 1635.17 1576.2 1635.17 1571.46 1635.17 1568.23 1635.17 1563.49 1635.17 1560.74 1635.17 1558.66 1635.17 1556.08 1635.17 1554 1635.17 1551.91 1635.17 1549.33 1634.99 1548.07 1634.37 1545.99 1634.55 1547 1634.4 1544.26 1634.22 1543.24 1633.61 1541.16 1633.67 1541.39 1633.05 1538.81 1633.16 1539.52 1633.01 1537.43 1632.91 1536.79 1632.3 1534.04 1632.41 1535.02 1632.41 1532.27 1632.41 1529.52 1632.41 1526.78 1632.41 1524.03 1632.41 1521.28 1632.41 1518.54 1632.41 1516.46 1632.41 1513.32 1632.41 1511.76 1632.41 1508.63 1632.41 1507.21 1632.41 1505.29 1632.41 1504.04 1632.41 1502.79 1632.41 1501.54 1632.41 1499.36 1632.41 1496.43 1632.41 1492.44 1632.41 1487.94 1632.41 1479.31 1632.41 1473.77 1632.41 1465.92 1632.41 1461.62 1632.41 1458.68 1632.41 1454.37 1632.41 1450.65 1632.41 1446.93 1632.41 1442.62 1632.41 1438.9 1632.41 1435.17 1632.41 1430.87 1632.41 1427.93 1632.41 1424.41 1632.41 1421.67 1632.33 1420.83 1631.66 1417.31 1631.73 1417.89 1631.56 1414.95 1631.49 1414.37 1630.81 1410.84 1630.89 1411.68 1630.89 1408.93 1630.89 1406.18 1630.89 1402.66 1630.89 1400.38 1630.85 1399.79 1630.24 1395.21 1630.27 1395.51 1630.12 1393.12 1629.93 1392.09 1628.7 1388.12 1628.89 1389.19 1628.74 1386.45 1628.68 1385.93 1628.06 1382.41 1628.13 1383.17 1628.13 1380.23 1628.13 1375.92 1628.13 1372.98 1628.13 1368.67 1628.03 1367.76 1627.42 1364.82 1627.51 1365.54 1627.36 1362.01 1627.25 1361.23 1626.64 1358.49 1626.75 1359.47 1626.75 1356.72 1626.75 1353.99 1626.75 1351.24 1626.75 1349.16 1626.75 1345.36 1626.75 1342.97 1626.75 1339 1626.64 1338.03 1626.02 1335.28 1626.12 1336.01 1625.97 1333.26 1625.91 1332.74 1625.3 1329.22 1625.36 1329.98 1625.36 1327.71 1625.36 1323.57 1625.36 1321.29 1625.36 1317.76 1625.36 1314.23 1625.36 1311.29 1625.36 1306.99 1625.36 1304.04 1625.36 1299.74 1625.36 1296.8 1625.36 1293.27 1625.36 1290.52 1625.36 1287.78 1625.36 1284.25 1625.36 1281.31 1625.36 1277 1625.36 1273.28 1625.36 1268.78 1625.36 1262.27 1625.36 1257.27 1625.36 1250.77 1625.36 1247.05 1625.36 1243.52 1625.36 1240.77 1625.36 1238.03 1625.22 1239.16 1625.76 1237.08 1625.9 1236.26 1626.04 1234.35 1625.67 1235.82 1626.22 1234.57 1626.6 1232.78 1626.6 1230.86 1626.42 1232.11 1627.02 1230.03 1627.2 1229.02 1627.35 1226.28 1627.25 1227 1627.86 1224.25 1627.86 1224.25 1628.46 1221.5 1628.56 1220.79 1628.71 1218.04 1628.65 1218.55 1629.26 1215.02 1629.32 1214.27 1629.32 1211.33 1629.32 1207.8 1629.32 1205.72 1629.32 1203.8 1629.32 1202.55 1629.32 1201.3 1629.32 1200.05 1629.32 1198.79 1629.32 1196.88 1629.32 1194.8 1629.32 1192.05 1629.32 1187.3 1629.26 1188.03 1629.93 1184 1629.99 1183.4 1630.15 1177.68 1630.11 1178.2 1630.77 1173.7 1630.76 1173.77 1631.37 1170.05 1631.42 1169.56 1631.57 1166.7 1631.46 1167.49 1632.06 1164.91 1632.18 1163.89 1632.18 1161.8 1632.08 1162.77 1632.68 1160.02 1632.78 1159.3 1632.93 1156.56 1632.84 1157.27 1633.44 1154.53 1633.55 1153.56 1633.55 1150.82 1633.55 1148.07 1633.47 1148.9 1634.13 1145.37 1634.2 1144.8 1634.37 1141.86 1634.11 1143.11 1635.38 1139.59 1635.63 1138.33 1635.78 1135.58 1635.68 1136.3 1636.28 1133.57 1636.39 1132.61 1636.39 1128.65 1636.39 1126.27 1636.39 1122.47 1636.39 1121.05 1636.39 1118.47 1636.39 1117.05 1636.39 1114.48 1636.39 1112.4 1636.39 1109.66 1636.39 1106.92 1636.39 1104.17 1636.39 1101.42 1636.39 1098.68 1636.39 1095.93 1636.39 1092.63 1636.39 1089.75 1636.39 1086.45 1636.39 1083.71 1636.39 1081.63 1636.39 1079.05 1636.39 1077.64 1636.39 1075.06 1636.39 1072.99 1636.39 1070.24 1636.39 1067.5 1636.39 1064.75 1636.39 1062.67 1636.39 1060.09 1636.39 1058.01 1636.39 1055.26 1636.39 1052.51 1636.39 1049.77 1636.39 1047.02 1636.39 1043.49 1636.39 1040.55 1636.39 1037.03 1636.39 1033.5 1636.39 1029.78 1636.39 1026.06 1636.39 1021.75 1636.39 1018.81 1636.39 1015.28 1636.39 1010.53 1636.39 1007.29 1636.39 1002.54 1636.39 999.793 1636.39 997.047 1636.39 994.3 1636.39 991.554 1636.39 988.808 1636.39 986.061 1636.39 983.315 1636.39 980.013 1636.39 977.127 1636.39 974.489 1636.39 971.909 1636.39 970.491 1636.39 967.911 1636.39 966.493 1636.39 963.913 1636.39 961.831 1636.39 959.749 1636.39 957.169 1636.39 955.087 1636.39 953.005 1636.39 951.089 1636.39 949.173 1636.39 947.788 1636.39 945.881 1636.39 944.662 1636.39 943.41 1636.39 942.159 1636.39 940.907 1636.39 938.991 1636.39 936.909 1636.39 934.163 1636.39 931.416 1636.39 928.67 1636.39 925.924 1636.39 923.178 1636.39 920.431 1636.39 917.685 1636.28 918.647 1636.89 915.901 1636.99 915.185 1637.14 912.439 1637.04 913.155 1637.64 910.409 1637.75 909.446 1637.75 906.7 1637.75 903.954 1637.75 901.216 1637.75 899.136 1637.75 896.564 1637.75 895.146 1637.75 893.23 1637.75 891.314 1637.75 889.897 1637.75 887.981 1637.75 886.729 1637.75 885.477 1637.75 884.259 1637.75 882.575 1637.75 880.699 1637.75 878.87 1637.75 875.958 1637.18 878.149 1637.72 877.175 1637.72 877.175C1638.05 876.587 1638.25 875.932 1638.29 875.258L1638.43 873.033 1637.39 875.628 1637.94 874.974 1637.94 874.974C1638.61 874.17 1638.98 873.154 1638.98 872.105L1638.98 871.42 1638.98 870.905 1638.98 870.906C1638.98 868.439 1636.98 866.44 1634.52 866.441 1632.05 866.442 1630.05 868.44 1630.05 870.905L1630.05 871.42 1630.05 872.105 1631.09 869.236 1630.55 869.89 1630.55 869.89C1629.93 870.622 1629.57 871.531 1629.51 872.485L1629.37 874.71 1629.94 872.793 1629.39 873.767 1629.39 873.767C1629.02 874.436 1628.82 875.19 1628.82 875.958L1628.82 878.87 1628.82 880.699 1628.82 882.575 1628.82 884.259 1628.82 885.477 1628.82 886.729 1628.82 887.981 1628.82 889.897 1628.82 891.314 1628.82 893.23 1628.82 895.146 1628.82 896.564 1628.82 899.136 1628.82 901.216 1628.82 903.954 1628.82 906.7 1628.82 909.446 1628.92 908.484 1628.32 911.23 1628.22 911.946 1628.07 914.693 1628.17 913.977 1627.56 916.723 1627.45 917.685 1627.45 920.431 1627.45 923.178 1627.45 925.924 1627.45 928.67 1627.45 931.416 1627.45 934.163 1627.45 936.909 1627.45 938.991 1627.45 940.907 1627.45 942.159 1627.45 943.41 1627.45 944.662 1627.45 945.881 1627.45 947.788 1627.45 949.173 1627.45 951.089 1627.45 953.005 1627.45 955.087 1627.45 957.169 1627.45 959.749 1627.45 961.831 1627.45 963.913 1627.45 966.493 1627.45 967.911 1627.45 970.491 1627.45 971.909 1627.45 974.489 1627.45 977.127 1627.45 980.013 1627.45 983.315 1627.45 986.061 1627.45 988.808 1627.45 991.554 1627.45 994.3 1627.45 997.047 1627.45 999.793 1627.45 1002.54 1627.45 1007.29 1627.45 1010.53 1627.45 1015.28 1627.45 1018.81 1627.45 1021.75 1627.45 1026.06 1627.45 1029.78 1627.45 1033.5 1627.45 1037.03 1627.45 1040.55 1627.45 1043.49 1627.45 1047.02 1627.45 1049.77 1627.45 1052.51 1627.45 1055.26 1627.45 1058.01 1627.45 1060.09 1627.45 1062.67 1627.45 1064.75 1627.45 1067.5 1627.45 1070.24 1627.45 1072.99 1627.45 1075.06 1627.45 1077.64 1627.45 1079.05 1627.45 1081.63 1627.45 1083.71 1627.45 1086.45 1627.45 1089.75 1627.45 1092.63 1627.45 1095.93 1627.45 1098.68 1627.45 1101.42 1627.45 1104.17 1627.45 1106.92 1627.45 1109.66 1627.45 1112.4 1627.45 1114.48 1627.45 1117.05 1627.45 1118.47 1627.45 1121.05 1627.45 1122.47 1627.45 1126.27 1627.45 1128.65 1627.45 1132.61 1627.56 1131.66 1626.96 1134.39 1626.86 1135.1 1626.71 1137.84 1626.97 1136.58 1625.71 1140.1 1625.45 1141.35 1625.29 1144.29 1625.36 1143.72 1624.69 1147.25 1624.61 1148.07 1624.61 1150.82 1624.61 1153.56 1624.72 1152.6 1624.11 1155.35 1624.02 1156.07 1623.86 1158.81 1623.96 1158.09 1623.36 1160.84 1623.25 1161.8 1623.25 1163.89 1623.37 1162.86 1622.76 1165.44 1622.65 1166.23 1622.5 1169.09 1622.55 1168.61 1621.94 1172.33 1621.93 1172.4 1621.27 1176.9 1621.22 1177.42 1621.06 1183.15 1621.12 1182.55 1620.45 1186.58 1620.39 1187.3 1620.39 1192.05 1620.39 1194.8 1620.39 1196.88 1620.39 1198.79 1620.39 1200.05 1620.39 1201.3 1620.39 1202.55 1620.39 1203.8 1620.39 1205.72 1620.39 1207.8 1620.39 1211.33 1620.39 1214.27 1620.46 1213.51 1619.85 1217.04 1619.79 1217.55 1619.64 1220.29 1619.74 1219.58 1619.13 1222.32 1619.13 1222.32 1618.53 1225.07 1618.43 1225.79 1618.28 1228.53 1618.45 1227.53 1617.84 1229.61 1617.66 1230.86 1617.66 1232.78 1618.04 1230.99 1617.49 1232.24 1617.13 1233.71 1616.99 1235.63 1617.13 1234.81 1616.58 1236.89 1616.43 1238.03 1616.43 1240.77 1616.43 1243.52 1616.43 1247.05 1616.43 1250.77 1616.43 1257.27 1616.43 1262.27 1616.43 1268.78 1616.43 1273.28 1616.43 1277 1616.43 1281.31 1616.43 1284.25 1616.43 1287.78 1616.43 1290.52 1616.43 1293.27 1616.43 1296.8 1616.43 1299.74 1616.43 1304.04 1616.43 1306.99 1616.43 1311.29 1616.43 1314.23 1616.43 1317.76 1616.43 1321.29 1616.43 1323.57 1616.43 1327.71 1616.43 1329.98 1616.5 1330.75 1617.11 1334.28 1617.05 1333.76 1617.21 1336.51 1617.31 1337.23 1617.92 1339.98 1617.81 1339 1617.81 1342.97 1617.81 1345.36 1617.81 1349.16 1617.81 1351.24 1617.81 1353.99 1617.81 1356.72 1617.81 1359.47 1617.92 1360.45 1618.54 1363.18 1618.43 1362.4 1618.59 1365.93 1618.68 1366.65 1619.29 1369.59 1619.2 1368.67 1619.2 1372.98 1619.2 1375.92 1619.2 1380.23 1619.2 1383.17 1619.26 1383.94 1619.88 1387.47 1619.82 1386.95 1619.97 1389.69 1620.16 1390.77 1621.39 1394.73 1621.2 1393.7 1621.36 1396.09 1621.39 1396.39 1622 1400.97 1621.96 1400.38 1621.96 1402.66 1621.96 1406.18 1621.96 1408.93 1621.96 1411.68 1622.04 1412.51 1622.71 1416.04 1622.64 1415.46 1622.81 1418.4 1622.88 1418.98 1623.55 1422.51 1623.47 1421.67 1623.47 1424.41 1623.47 1427.93 1623.47 1430.87 1623.47 1435.17 1623.47 1438.9 1623.47 1442.62 1623.47 1446.93 1623.47 1450.65 1623.47 1454.37 1623.47 1458.68 1623.47 1461.62 1623.47 1465.92 1623.47 1473.77 1623.47 1479.31 1623.47 1487.94 1623.47 1492.44 1623.47 1496.43 1623.47 1499.36 1623.47 1501.54 1623.47 1502.79 1623.47 1504.04 1623.47 1505.29 1623.47 1507.21 1623.47 1508.63 1623.47 1511.76 1623.47 1513.32 1623.47 1516.46 1623.47 1518.54 1623.47 1521.28 1623.47 1524.03 1623.47 1526.78 1623.47 1529.52 1623.47 1532.27 1623.47 1535.02 1623.58 1535.99 1624.2 1538.74 1624.1 1538.09 1624.25 1540.17 1624.36 1540.88 1624.98 1543.46 1625.04 1543.69 1625.65 1545.77 1625.48 1544.76 1625.63 1547.5 1625.81 1548.52 1626.42 1550.6 1626.24 1549.33 1626.24 1551.91 1626.24 1554 1626.24 1556.08 1626.24 1558.66 1626.24 1560.74 1626.24 1563.49 1626.24 1568.23 1626.24 1571.46 1626.24 1576.2 1626.24 1578.93 1626.24 1581.67 1626.24 1584.41 1626.24 1587.16 1626.24 1589.9 1626.24 1592.65 1626.24 1595.4 1626.24 1597.48 1626.24 1600.06 1626.24 1601.48 1626.24 1604.06 1626.24 1605.47 1626.24 1607.39 1626.24 1608.64 1626.24 1609.89 1626.24 1611.14 1626.24 1612.4 1626.24 1613.65 1626.24 1614.9 1626.24 1616.15 1626.24 1618.07 1626.24 1620.71 1626.24 1622.93 1626.24 1626.06 1626.24 1628.15 1626.24 1630.89 1626.24 1633.64 1626.24 1636.38 1626.24 1639.13 1626.24 1641.21 1626.24 1643.78 1626.24 1645.2 1626.24 1647.77 1626.24 1649.85 1626.24 1652.59 1626.24 1656.12 1626.31 1655.33 1625.65 1659.04 1625.58 1659.67 1625.41 1664.17 1625.44 1663.79 1624.78 1669.17 1624.75 1669.72 1624.75 1674.44 1624.75 1680.73 1624.75 1685.45 1624.75 1691.77 1624.75 1696.49 1624.75 1701.12 1624.75 1705.43 1624.75 1708.37 1624.75 1713.9 1624.75 1717.14 1624.75 1721.89 1624.75 1725.42 1624.75 1729.14 1624.75 1732.86 1624.75 1737.17 1624.75 1740.11 1624.75 1744.42 1624.75 1746.7 1624.75 1750.84 1624.75 1752.45 1624.75 1755.81 1624.75 1757.89 1624.75 1761.19 1624.75 1764.08 1624.75 1767.38 1624.75 1770.13 1624.75 1773.66 1624.75 1777.38 1624.75 1781.09 1624.75 1784.62 1624.75 1787.35 1624.75 1790.88 1624.75 1793.16 1624.75 1796.52 1624.75 1798.6 1624.75 1801.35 1624.75 1803.43 1624.75 1805.34 1624.75 1806.6 1624.75 1808.51 1624.75 1810.59 1624.75 1814.12 1624.75 1817.06 1624.75 1820.59 1624.75 1825.34 1624.75 1828.58 1624.75 1832.67 1624.75 1835.25 1624.75 1837.33 1624.75 1839.41 1624.75 1841.98 1624.75 1843.4 1624.75 1845.97 1624.75 1848.05 1624.75 1850.13 1624.87 1851.17 1625.48 1853.75 1625.37 1853.04 1625.53 1855.13 1625.7 1856.06 1626.31 1858.14 1626.13 1856.88 1626.13 1859.46 1626.13 1861.54 1626.13 1863.62 1626.13 1866.2 1626.13 1868.28 1626.13 1870.36 1626.13 1872.93 1626.13 1874.35 1626.13 1876.93 1626.13 1879.01 1626.13 1881.75 1626.13 1883.84 1626.13 1886.42 1626.13 1887.78 1626.13 1889.64 1626.13 1890.83 1626.13 1892.02 1626.13 1893.27 1626.13 1894.51 1626.13 1896.43 1626.13 1898.51 1626.13 1901.26 1626.13 1904.79 1626.13 1908.51 1626.13 1913.01 1626.13 1918.42 1626.13 1924.05 1626.13 1930.59 1626.16 1931.08 1626.88 1937.59 1626.85 1937.2 1627.03 1944.75 1627.05 1945.06 1627.77 1952.84 1627.78 1952.94 1628.89 1962.51 1628.89 1962.53 1630.09 1972.56 1630.09 1972.55 1631.46 1984.08 1631.47 1984.15 1632.76 1993.74 1632.76 1993.75 1633.97 2002.73 1633.96 2002.66 1634.75 2009.31 1634.72 2008.78 1634.72 2014.19 1634.72 2017.19 1634.85 2018.24 1635.36 2020.37 1635.36 2020.37C1635.88 2022.49 1637.85 2023.93 1640.03 2023.77L1640.71 2023.72 1640.71 2023.72C1641.82 2023.64 1642.85 2023.15 1643.62 2022.35L1644.27 2021.67 1644.36 2021.57 1645.47 2020.34 1646.05 2019.53 1646.74 2018.31 1645.34 2019.83 1647.25 2018.54 1648.29 2017.56 1649.76 2015.66 1648.47 2016.79 1651.07 2015.27 1652.25 2014.27 1654.39 2011.69 1653.52 2012.5 1655.6 2011.04 1655.74 2010.94 1658.32 2008.99 1658.57 2008.78 1659.99 2007.53 1659.51 2007.9 1661.39 2006.65 1661.04 2006.85 1662.29 2006.18 1662.29 2006.18C1662.97 2005.81 1663.54 2005.27 1663.95 2004.61L1664.6 2003.56 1663.15 2005 1664.26 2004.32 1664.26 2004.32C1664.91 2003.92 1665.44 2003.37 1665.81 2002.71L1666.5 2001.48 1665.75 2002.46 1667 2001.23 1667 2001.23 1668.25 2000 1669.5 1998.77 1669.51 1998.76 1671.42 1996.87 1671.41 1996.87 1672.83 1995.48 1672.39 1995.86 1674.96 1993.91 1675.29 1993.64 1677.37 1991.73 1676.91 1992.1 1678.99 1990.64 1679.58 1990.15 1683.38 1986.38 1682.88 1986.8 1685.27 1985.04 1685.45 1984.9 1690.2 1980.99 1690 1981.15 1692.94 1979 1693.11 1978.87 1696.64 1976.03 1696.56 1976.08 1699.31 1973.96 1699.63 1973.69 1702.38 1971.11 1702.06 1971.39 1704.8 1969.26 1704.42 1969.53 1707.95 1967.35 1708.92 1966.54 1711.25 1963.95 1709.82 1965.01 1713.2 1963.43 1714.33 1962.67 1716.47 1960.7 1716.05 1961.05 1718.8 1959.08 1718.75 1959.11 1720.83 1957.66 1721.42 1957.17 1723.99 1954.61 1723.4 1955.1 1725.48 1953.65 1725.63 1953.54 1729.15 1950.86 1728.51 1951.26 1731.45 1949.72 1732.09 1949.31 1735.61 1946.63 1734.72 1947.16 1738.24 1945.58 1738.92 1945.21 1741.86 1943.22 1741.03 1943.66 1744.56 1942.24 1744.42 1942.3 1746.5 1941.54 1746.87 1941.38 1749.45 1940.17 1749.53 1940.13 1750.95 1939.44 1750.59 1939.59 1752.5 1938.85 1752.68 1938.78 1753.93 1938.23 1753.93 1938.23 1755.18 1937.68 1753.88 1938.03 1755.13 1937.89 1755.13 1937.89C1755.77 1937.82 1756.39 1937.61 1756.94 1937.28L1758.85 1936.14 1758.52 1936.31 1761.15 1935.02 1761.23 1934.98 1764.11 1933.49 1764.29 1933.39 1767.58 1931.49 1767.33 1931.62 1770.08 1930.26 1770.08 1930.26 1772.83 1928.89 1773.21 1928.67 1775.29 1927.37 1774.16 1927.88 1776.74 1927.13 1778.23 1926.38 1779.65 1925.28 1778.42 1925.95 1780.34 1925.27 1780.98 1924.98 1782.23 1924.29 1783.03 1923.74 1784.28 1922.64 1783.48 1923.2 1784.73 1922.51 1785.09 1922.3 1787 1921.01 1788.04 1920.03 1789.52 1918.12 1788.23 1919.25 1790.82 1917.74 1791.6 1917.17 1794.51 1914.48 1794.27 1914.69 1798.17 1911.58 1797.95 1911.74 1802.5 1908.54 1803.03 1908.11 1807.9 1903.42 1807.37 1903.86 1811.92 1900.66 1812.44 1900.22 1817.31 1895.54 1816.79 1895.97 1821.33 1892.77 1822.09 1892.1 1826.11 1887.6 1825.4 1888.24 1829.74 1885.09 1830.71 1884.12 1833.86 1879.84 1833.16 1880.59 1836.71 1877.56 1837.27 1876.98 1840.12 1873.5 1839.8 1873.84 1842.55 1871.12 1842.55 1871.12 1845.3 1868.39 1845.3 1868.39 1848.04 1865.66 1848.04 1865.66 1850.79 1862.93 1851.1 1862.59 1853.96 1859.08 1853.77 1859.31 1855.88 1857.05 1856.3 1856.52 1859.12 1852.39 1858.69 1852.93 1860.8 1850.67 1861.3 1850.03 1863.55 1846.53 1863.01 1847.21 1866.22 1843.87 1866.5 1843.56 1868.79 1840.68 1868.44 1841.07 1871.14 1838.4 1871.14 1838.4 1873.72 1835.84 1874.21 1835.26 1875.68 1833.2 1875.31 1833.65 1877.24 1831.59 1877.52 1831.27 1879.49 1828.7 1879.1 1829.15 1881.18 1827.09 1881.18 1827.08 1883.93 1824.36 1883.51 1824.72 1886.26 1822.6 1886.93 1821.96 1889.79 1818.61 1889.25 1819.14 1892.03 1816.82 1892.56 1816.3 1896.39 1811.82 1895.82 1812.38 1899.59 1809.29 1899.86 1809.06 1904.73 1804.37 1904.53 1804.55 1909.26 1800.5 1909.51 1800.27 1914.43 1795.38 1914.43 1795.38 1919.34 1790.48 1919.34 1790.48 1924.25 1785.59 1924.48 1785.34 1928.55 1780.63 1928.36 1780.83 1934.03 1775.01 1934.2 1774.83 1938.51 1769.88 1938.48 1769.91 1944.53 1763.09 1944.4 1763.23 1949.36 1758.09 1949.69 1757.7 1957.31 1747.74 1957.2 1747.88 1962.92 1741 1962.96 1740.96 1970.45 1731.72 1970.51 1731.64 1975.77 1724.82 1975.45 1725.19 1980.41 1720.05 1980.77 1719.63 1985.01 1713.95 1984.86 1714.15 1989.73 1708.33 1990 1707.99 1993.26 1703.22 1993.05 1703.5 1996.96 1698.65 1996.88 1698.75 2000.71 1694.28 2000.75 1694.22 2003.86 1690.47 2003.64 1690.72 2007.37 1686.84 2007.82 1686.29 2010.8 1682 2010.37 1682.53 2013.15 1679.6 2013.58 1679.08 2016.56 1674.79 2016.13 1675.31 2018.9 1672.39 2019.12 1672.14 2021.99 1668.63 2021.99 1668.63 2024.85 1665.12 2024.6 1665.4 2028.6 1661.27 2028.82 1661.02 2031.99 1657.21 2031.93 1657.28 2036.01 1652.56 2035.85 1652.73 2039.59 1648.84 2039.82 1648.6 2042.92 1644.85 2042.87 1644.9 2046.7 1640.43 2046.52 1640.62 2050.26 1636.74 2050.48 1636.49 2053.59 1632.74 2053.54 1632.8 2057.36 1628.33 2057.19 1628.52 2060.93 1624.63 2061.35 1624.12 2064.57 1619.59 2064.37 1619.85 2068.23 1615.18 2068.49 1614.83 2071.5 1610.34 2071.5 1610.34 2074.51 1605.86 2074.51 1605.86 2077.52 1601.38 2077.61 1601.23 2079.89 1597.53 2079.82 1597.64 2082.65 1593.36 2082.72 1593.24 2085.01 1589.54 2084.73 1589.94 2087.62 1586.24 2087.76 1586.04 2090.74 1581.75 2090.9 1581.5 2093.13 1577.8 2092.9 1578.15 2095.62 1574.44 2095.81 1574.17 2100.43 1566.8 2099.95 1567.43 2103.3 1563.73 2103.46 1563.55 2109.59 1556 2109.53 1556.06 2113.66 1551.17 2113.47 1551.38 2117.46 1547.2 2117.62 1547.03 2122.47 1541.42 2122.23 1541.66 2126.18 1537.73 2126.18 1537.73 2130.14 1533.8 2129.87 1534.04 2134.36 1530.23 2134.53 1530.09 2137.47 1527.33 2137.3 1527.48 2141.79 1523.67 2142.05 1523.43 2145.04 1520.46 2144.78 1520.7 2149.27 1516.9 2149.76 1516.41 2152.82 1512.87 2152.07 1513.56 2156.4 1510.41 2157.38 1509.44 2160.55 1505.12 2159.91 1505.82 2164.43 1501.82 2164.85 1501.4 2168.92 1496.68 2168.69 1496.93 2173.6 1492.03 2173.83 1491.79 2177.9 1487.08 2177.72 1487.27 2182.42 1482.42 2182.8 1481.98 2187.04 1476.31 2186.9 1476.49 2191.01 1471.53 2190.99 1471.55 2195.87 1465.74 2196.08 1465.46 2199.3 1460.93 2199.11 1461.18 2202.95 1456.53 2203.22 1456.17 2206.23 1451.69 2206.48 1451.27 2208.81 1446.79 2208.14 1447.74 2211.65 1443.93 2212.22 1443.15 2214.73 1438.83 2214.09 1439.68 2217.76 1435.86 2218.25 1435.26 2221.26 1430.77 2220.99 1431.13 2224.84 1426.46 2224.78 1426.54 2228.85 1421.82 2228.62 1422.07 2233.53 1417.18 2233.76 1416.93 2237.83 1412.22 2237.65 1412.41 2242.36 1407.56 2242.3 1407.62 2250.55 1399.4 2250.7 1399.25 2255.81 1393.66 2255.43 1394.03 2264.13 1386.52 2264.82 1385.79 2267.99 1381.47 2266.81 1382.58 2269.64 1380.75 2270.36 1380.17 2272.38 1378.18 2271.11 1379.06 2272.3 1378.51 2272.95 1378.15 2274.76 1376.91 2275.39 1376.4 2277.44 1374.36 2277.44 1374.37 2279.41 1372.42 2279.42 1372.41 2282 1369.85 2281.41 1370.34 2283.5 1368.88 2283.99 1368.48 2286.74 1365.9 2286.41 1366.18 2289.16 1364.06 2289.57 1363.69 2292.32 1360.97 2292.32 1360.96 2296.03 1357.27 2296.03 1357.27 2299.02 1354.31 2299.02 1354.3 2303.69 1349.65 2303.98 1349.33 2307.09 1345.58 2306.61 1346.08 2311.13 1342.08 2311.5 1341.71 2315.52 1337.21 2315.09 1337.63 2319.81 1333.59 2320.06 1333.36 2324.97 1328.46 2325.2 1328.22 2329.26 1323.51 2329.08 1323.71 2333.79 1318.86 2333.96 1318.67 2338.03 1313.95 2337.8 1314.2 2342.71 1309.31 2342.71 1309.31 2349.81 1302.24 2355.27 1296.8 2355.27 1296.8 2362.36 1289.73 2362.36 1289.73 2367.27 1284.84 2367.27 1284.84 2372.17 1279.96 2372.17 1279.96 2377.09 1275.06 2377.09 1275.06 2382 1270.17 2382 1270.17 2386.91 1265.27 2386.91 1265.27 2392.79 1259.41 2392.79 1259.41 2397.94 1254.28 2397.95 1254.28 2404.79 1247.46 2404.78 1247.46 2409.94 1242.32 2409.94 1242.32 2416.78 1235.5 2416.78 1235.5 2421.93 1230.36 2421.73 1230.55 2428.57 1224.52 2428.72 1224.38 2434.84 1218.48 2434.66 1218.64 2440.78 1213.33 2441.01 1213.12 2446.88 1207.26 2446.88 1207.26 2451.8 1202.37 2451.8 1202.37 2457.67 1196.51 2457.67 1196.51 2462.83 1191.38 2463.02 1191.17 2468.05 1185.5 2467.73 1185.82 2474.43 1179.65 2474.95 1179.08 2478.66 1174.22 2477.94 1174.97 2484.45 1169.64 2485.23 1168.83 2488.4 1164.51 2487.7 1165.26 2491.26 1162.22 2491.82 1161.65 2494.68 1158.14 2494.37 1158.49 2497.11 1155.76 2497.12 1155.76 2500.83 1152.07 2500.82 1152.07 2503.81 1149.1 2503.81 1149.1 2507.52 1145.41 2507.52 1145.41 2510.27 1142.68 2510.58 1142.34 2513.44 1138.83 2513.22 1139.08 2515.99 1136.17 2516.21 1135.92 2519.07 1132.41 2518.76 1132.76 2521.49 1130.04 2521.49 1130.04 2524.24 1127.31 2524.24 1127.31 2526.99 1124.58 2526.99 1124.58 2529.73 1121.85 2529.96 1121.61 2534.04 1116.89 2533.89 1117.05 2536.96 1113.82 2537.11 1113.66 2541.19 1108.94 2540.96 1109.19 2543.71 1106.46 2544.02 1106.11 2546.88 1102.61 2546.66 1102.86 2549.44 1099.94 2549.66 1099.68 2552.52 1096.18 2552.21 1096.52 2554.95 1093.79 2554.95 1093.79 2557.7 1091.07 2558.01 1090.72 2560.87 1087.22 2560.65 1087.47 2563.42 1084.55 2563.64 1084.3 2566.49 1080.81 2566.17 1081.15 2568.92 1078.43 2568.92 1078.43 2571.66 1075.71 2571.66 1075.71 2574.4 1072.98 2574.71 1072.64 2577.58 1069.13 2577.36 1069.38 2580.13 1066.46 2580.65 1065.8 2582.9 1062.29 2582.38 1062.95 2584.98 1060.22 2585.5 1059.56 2587.76 1056.05 2587.59 1056.3 2589.76 1053.38 2589.7 1053.45 2592.41 1049.94 2592.64 1049.62 2594.89 1046.12 2594.38 1046.78 2597.15 1043.85 2597.58 1043.32 2600.56 1039.04 2600.11 1039.58 2603.83 1035.72 2604.15 1035.35 2608.58 1029.61 2608.25 1029.99 2613.24 1024.86 2613.57 1024.48 2618.01 1018.74 2617.68 1019.11 2622.39 1014.26 2622.56 1014.07 2626.63 1009.36 2626.63 1009.36 2630.69 1004.65 2630.27 1005.08 2634.78 1001.08 2635.42 1000.38 2638.59 996.067 2638.22 996.517 2641.88 992.706 2642.18 992.36 2645.07 988.656 2645.01 988.731 2647.87 985.223 2647.56 985.569 2650.31 982.841 2650.31 982.841 2653.05 980.113 2653.42 979.702 2655.56 976.974 2655.28 977.295 2657.88 974.568 2658.15 974.247 2660.29 971.519 2659.93 971.93 2662.67 969.203 2662.99 968.858 2665.85 965.35 2665.63 965.602 2668.4 962.679 2668.63 962.426 2671.48 958.926 2671.4 959.025 2675.48 954.307 2675.02 954.763 2678.88 951.429 2679.45 950.83 2683.84 945.3 2683.57 945.617 2687.24 941.798 2687.54 941.451 2690.43 937.748 2690.58 937.547 2693.56 933.258 2693.13 933.786 2695.9 930.863 2695.81 930.954 2699.46 927.33 2699.69 927.084 2702.74 923.547 2702.27 924.022 2705.82 920.983 2706.38 920.411 2709.24 916.903 2708.93 917.248 2711.68 914.521 2711.68 914.518 2715.39 910.827 2715.39 910.829 2718.37 907.861 2718.38 907.857 2723.05 903.203 2722.73 903.494 2726.5 900.41 2726.76 900.173 2731.63 895.49 2731.44 895.665 2736.17 891.617 2736.17 891.617 2740.9 887.569 2741.09 887.394 2745.96 882.711 2745.65 882.983 2752.37 877.615 2752.47 877.533 2758.85 872.134 2758.53 872.379 2766.38 866.86 2766.43 866.829 2773.44 861.77 2773.24 861.906 2780.03 857.549 2780.29 857.368 2787.37 852.086 2787.37 852.084 2794.41 846.814 2794.65 846.626 2801.73 840.551 2801.56 840.692 2808.64 835.208 2808.81 835.066 2815.89 828.99 2815.89 828.99 2822.97 822.915 2822.99 822.898 2829.11 817.588 2829.13 817.565 2835.97 811.533 2836.12 811.397 2842.24 805.496 2841.87 805.812 2848.95 800.328 2849.33 800.004 2856.41 793.139 2856.08 793.425 2864.24 786.919 2864.36 786.821 2870.57 781.511 2870.43 781.622 2879.38 774.547 2879.38 774.552 2887.86 767.872 2887.85 767.877 2896.58 761.029 2896.6 761.01 2905.96 753.564 2905.85 753.648 2912.93 748.361 2912.75 748.488 2920.61 743.201 2920.75 743.108 2928.02 737.821 2928.13 737.742 2935.99 731.666 2935.99 731.664 2943.07 726.179 2943.25 726.036 2950.31 719.969 2950.07 720.159 2957.15 714.874 2957.15 714.873 2964.21 709.595 2964.41 709.444 2970.52 704.331 2970.32 704.492 2976.01 700.27 2976.21 700.114 2982.04 695.257 2982.02 695.274 2986.99 691.182 2986.82 691.321 2992.51 687.099 2992.95 686.73 2997.8 682.064 2997.36 682.433 3003.05 678.215 3003.25 678.053 3009.34 672.965 3009.15 673.118 3016.22 667.833 3016.22 667.832 3023.29 662.553 3023.22 662.602 3029.16 658.336 3029.01 658.439 3035.87 653.913 3035.78 653.974 3042.77 649.616 3042.53 649.755 3049.09 646.211 3049.21 646.145 3055.73 642.363 3055.59 642.438 3061.56 639.246 3060.65 639.612 3063.59 638.796 3064.19 638.584 3065.57 637.978 3065.57 637.978C3067.83 636.99 3068.86 634.357 3067.88 632.097 3067.17 630.471 3065.56 629.42 3063.78 629.42L3063.64 629.42 3062.45 629.42 3061.25 629.42 3060.01 629.42 3058.78 629.42 3057.59 629.42 3056.37 629.42 3055.18 629.42 3053.94 629.42 3052.16 629.42 3050.13 629.42 3047.52 629.42 3044.79 629.42 3041.28 629.42 3038.36 629.42 3034.07 629.42 3030.37 629.42 3026.66 629.42 3022.37 629.42 3018.67 629.42 3014.19 629.42 3009.7 629.42 3005.22 629.42 3000.74 629.42 2997.03 629.42 2992.74 629.42 2989.82 629.42 2986.31 629.42 2982.81 629.42 2979.89 629.42 2976.39 629.42 2972.45 629.42 2969.43 629.42 2965.49 629.42 2961.99 629.42 2959.07 629.42 2954.78 629.42 2951.86 629.42 2947.57 629.42 2943.87 629.42 2939.38 629.42 2935.68 629.42 2931.39 629.42 2927.69 629.42 2923.99 629.42 2919.7 629.42 2915.99 629.42 2911.51 629.42 2907.03 629.42 2906.36 629.469 2901.88 630.142 2902.34 630.097 2898.64 630.265 2897.5 630.465 2893.22 631.81 2893.56 631.716 2889.86 632.557 2890.03 632.523 2885.54 633.364 2885.08 633.475 2880.6 634.821 2880.46 634.864 2875.98 636.369 2876.03 636.353 2870.64 638.09 2870.12 638.292 2865.41 640.483 2866.18 640.209 2859.89 641.839 2859.38 642.004 2851.77 644.985 2852.18 644.847 2845.16 646.839 2844.88 646.93 2836.36 649.969 2836.77 649.844 2830.25 651.488 2830.25 651.488 2823.73 653.132 2823.61 653.165 2818 654.751 2818.09 654.725 2811.8 656.355 2811.54 656.43 2806.83 657.958 2807.47 657.801 2802.08 658.699 2802.16 658.688 2797.67 659.361 2798.33 659.311 2794.63 659.311 2790.34 659.311 2787.42 659.311 2783.91 659.311 2781.18 659.311 2778.46 659.311 2776.39 659.311 2773.83 659.311 2771.77 659.311 2769.04 659.311 2766.31 659.311 2763.59 659.311 2760.86 659.311 2758.13 659.311 2754.86 659.311 2751.99 659.311 2748.72 659.311 2746.65 659.311 2744.09 659.311 2742.03 659.311 2739.3 659.311 2736.57 659.311 2733.84 659.311 2731.12 659.311 2726.4 659.311 2722.39 659.311 2717.47 659.311 2713.19 659.311 2708.58 659.311 2703.87 659.311 2697.57 659.311 2696.94 659.356 2692.23 660.029 2692.75 659.985 2686.45 660.153 2686.04 660.184 2680.42 660.856 2674.81 661.529 2675.22 661.499 2668.93 661.667 2668.52 661.697 2662.9 662.369 2663.43 662.338 2657.82 662.338 2657.3 662.367 2651.01 663.098 2651.35 663.072 2646.64 663.254 2646.21 663.291 2640.82 664.022 2641.42 663.982 2636.04 663.982 2635.4 664.026 2630.69 664.699 2631.21 664.656 2624.91 664.824 2624.5 664.854 2618.89 665.526 2619.42 665.495 2613.8 665.495 2607.51 665.495 2601.9 665.495 2593.39 665.495 2587.29 665.495 2579 665.495 2575.07 665.495 2569.88 665.495 2566.17 665.495 2562.47 665.495 2558.18 665.495 2555.26 665.495 2551.75 665.495 2549.02 665.495 2545.51 665.495 2542.59 665.495 2538.3 665.495 2535.38 665.495 2531.87 665.495 2529.15 665.495 2526.42 665.495 2523.69 665.495 2520.96 665.495 2518.9 665.495 2516.34 665.495 2514.27 665.495 2512.21 665.495 2509.65 665.495 2507.59 665.495 2503.65 665.495 2500.62 665.495 2496.68 665.495 2493.95 665.495 2491.22 665.495 2487.71 665.495 2484.79 665.495 2481.29 665.495 2478.56 665.495 2475.84 665.495 2473.12 665.495 2470.39 665.495 2466.88 665.495 2463.96 665.495 2460.45 665.495 2456.94 665.495 2454.02 665.495 2450.52 665.495 2442.95 665.495 2438.24 665.495 2430.48 665.495 2426.97 665.495 2424.25 665.495 2421.75 665.495 2419.74 665.495 2417.42 665.495 2416.14 665.681 2414.08 666.295 2415.02 666.122 2412.96 666.275 2411.36 666.702 2408.8 667.931 2410.4 667.504 2408.33 667.658 2408.33 667.658C2407.67 667.707 2407.03 667.901 2406.46 668.227L2404.4 669.398 2406.36 668.823 2403.8 668.962 2402.39 669.271 2400.99 669.828 2402.64 669.512 2400.09 669.512 2398.69 669.512 2397.44 669.69 2395.56 670.238 2396.32 670.087 2395.08 670.224 2393.75 670.586 2392.53 671.134 2394.35 670.745 2391.91 670.745 2390.37 670.745 2389.51 670.829 2386.4 671.444 2386.78 671.386 2385.38 671.539 2384.49 671.73 2382.59 672.344 2383.97 672.127 2382.07 672.127 2380.68 672.127 2378.12 672.127 2376.73 672.127 2374.17 672.127 2372.77 672.127 2370.21 672.127 2368.14 672.127 2365.42 672.127 2361.91 672.127 2358.98 672.127 2354.7 672.127 2350.99 672.127 2345.6 672.127 2340.89 672.127 2335.51 672.127 2331.02 672.127 2323.64 672.127 2319.21 672.127 2312.03 672.127 2308.32 672.127 2303.84 672.127 2299.36 672.127 2294.87 672.127 2290.39 672.127 2285.9 672.127 2281.42 672.127 2276.94 672.127 2272.45 672.127 2268.75 672.127 2264.46 672.127 2260.76 672.127 2257.06 672.127 2252.77 672.127 2249.84 672.127 2246.34 672.127 2242.83 672.127 2239.91 672.127 2235.62 672.127 2231.91 672.127 2228.21 672.127 2223.92 672.127 2220.23 672.127 2215.76 672.127 2212.07 672.127 2207.78 672.127 2204.86 672.127 2200.57 672.127 2197.65 672.127 2192.15 672.127 2187.71 672.127 2181.9 672.127 2177.77 672.127 2174.27 672.127 2170.76 672.127 2167.07 672.127 2163.36 672.127 2159.08 672.127 2154.16 672.127 2149.37 672.127 2143.68 672.127 2139.97 672.127 2135.69 672.127 2131.98 672.127 2128.28 672.127 2124.77 672.127 2121.26 672.127 2118.34 672.127 2114.83 672.127 2111.32 672.127 2108.4 672.127 2104.89 672.127 2102.17 672.127 2099.44 672.127 2096.71 672.127 2094.65 672.127 2092.75 672.127 2090.85 672.127 2089.45 672.127 2087.56 672.127 2086.32 672.127 2085.09 672.127 2083.19 672.127 2081.79 672.127 2079.23 672.127 2077.17 672.127 2075.11 672.127 2072.54 672.127 2070.48 672.127 2068.42 672.127 2065.86 672.127 2064.46 672.127 2062.56 672.127 2060.66 672.127 2059.26 672.127 2056.7 672.127 2054.64 672.127 2051.91 672.127 2049.18 672.127 2046.46 672.127 2043.73 672.127 2037.02 672.127 2032.51 672.127 2024.82 672.127 2019.43 672.127 2015.74 672.127 2011.38 672.127 2008.89 672.127 2006.16 672.127 2004.1 672.127 2002.2 672.127 2000.97 672.127 1999.73 672.127 1998.5 672.127 1997.27 672.127 1996.03 672.127 1994.8 672.127 1993.57 672.127 1992.33 672.127 1991.11 672.127 1989.88 672.127 1988.65 672.127 1987.42 672.127 1985.52 672.127 1983.46 672.127 1980.73 672.127 1978.01 672.127 1974.5 672.127 1971.57 672.127 1967.29 672.127 1963.58 672.127 1959.1 672.127 1954.62 672.127 1950.91 672.127 1946.62 672.127 1946.23 672.144 1938.55 672.817 1938.8 672.802 1933.32 672.97 1932.93 672.999 1921.56 674.344 1921.38 674.37 1916.17 675.211 1916.43 675.176 1908.14 676.017 1907.51 676.127 1901.92 677.522 1902.87 677.391 1896.36 677.571 1895.91 677.606 1890.31 678.329 1890.37 678.322 1884.07 679.053 1884.41 679.026 1879.7 679.209 1879.48 679.223 1871.2 679.953 1871.59 679.936 1866.38 679.936 1859.78 679.936 1855.49 679.936 1852.57 679.936 1851.8 680.003 1848.29 680.618 1848.81 680.558 1846.08 680.711 1845.06 680.89 1843 681.504 1844.27 681.319 1841.71 681.319 1839.65 681.319 1837.58 681.319 1835.02 681.319 1832.96 681.319 1830.23 681.319 1827.5 681.319 1824.78 681.319 1822.71 681.319 1820.15 681.319 1819.13 681.437 1816.52 682.052 1817.3 681.94 1814.44 682.093 1813.65 682.205 1811.04 682.82 1812.06 682.701 1809.5 682.701 1808.1 682.701 1806.21 682.701 1804.31 682.701 1802.91 682.701 1801.01 682.701 1799.11 682.701 1797.05 682.701 1795.89 682.855 1793.83 683.411 1794.75 683.264 1792.18 683.403 1791.57 683.479 1788.72 684.036 1789.58 683.953 1786.66 683.953 1785.97 684.007 1781.68 684.679 1782.11 684.633 1779.19 684.801 1778.11 684.998 1773.82 686.343 1774.96 686.143 1771.25 686.311 1770.66 686.379 1766.96 687.051 1767.75 686.979 1763.46 686.979 1759.76 686.979 1759.1 687.029 1754.62 687.701 1755.11 687.655 1750.63 687.823 1750.13 687.869 1745.65 688.542 1746.31 688.493 1741.83 688.493 1737.34 688.493 1732.86 688.493 1729.16 688.493 1724.87 688.493 1721.94 688.493 1718.45 688.493 1715.72 688.493 1713 688.493 1709.72 688.493 1706.86 688.493 1703.58 688.493 1700.86 688.493 1698.79 688.493 1696.23 688.493 1694.83 688.493 1692.27 688.493 1690.87 688.493 1688.97 688.493 1686.53 688.493 1684.33 688.493 1681.05 688.493 1678.33 688.493 1675.6 688.493 1672.87 688.493 1670.14 688.493 1663.78 688.493 1660.14 688.493 1653.78 688.493 1651.05 688.493 1648.32 688.493 1645.34 688.493 1645.34 688.493C1644.65 688.493 1643.97 688.651 1643.36 688.956L1642.3 689.479 1643.55 689.077 1642.76 689.208 1642.76 689.208C1640.33 689.614 1638.69 691.916 1639.09 694.349 1639.26 695.358 1639.77 696.279 1640.54 696.957L1641.75 698.028 1642.58 698.609 1643.8 699.269 1642.77 698.502 1644 699.737 1644 699.737 1645.19 700.922 1645.19 700.922 1646.38 702.116 1647.42 702.889 1648.63 703.539 1646.93 701.926 1647.57 702.989 1647.57 702.989C1647.94 703.585 1648.43 704.088 1649.02 704.457L1650.14 705.153 1648.6 703.534 1649.29 704.786 1649.29 704.786C1649.7 705.515 1650.3 706.116 1651.03 706.521L1652.28 707.217 1650.86 705.963 1652.17 707.739 1652.31 707.929 1653.02 708.791 1652.66 708.28 1653.83 710.196 1653.74 710.035 1654.43 711.287 1655.18 712.276 1656.43 713.528 1655.9 712.891 1657.21 714.807 1656.91 714.286 1657.61 715.704 1657.8 716.032 1658.97 717.948 1658.87 717.788 1659.57 719.04 1660.32 720.03 1661.57 721.281 1661.04 720.644 1662.35 722.56 1662.7 723.014 1663.97 724.432 1663.62 723.978 1664.93 725.893 1665.45 726.531 1666.7 727.782 1666.71 727.783 1667.96 729.034 1667.96 729.034 1669.77 730.842 1669.77 730.842 1671.16 732.233 1671.16 732.233 1672.96 734.041 1672.96 734.041 1674.22 735.292 1674.22 735.293 1675.47 736.545 1676.1 737.073 1678.02 738.383 1677.57 738.027 1678.98 739.294 1679.44 739.649 1681.35 740.959 1680.72 740.43 1681.97 741.682 1681.97 741.682 1683.22 742.933 1683.22 742.934 1684.47 744.186 1684.47 744.185 1685.72 745.437 1686.36 745.966 1688.28 747.276 1687.82 746.92 1689.24 748.186 1689.69 748.542 1691.61 749.852 1691.96 750.069 1693.21 750.765 1692.42 750.198 1693.67 751.311 1695 752.129 1696.92 752.883 1695.58 752.057 1696.99 753.323 1696.81 753.151 1698.78 755.125 1699.23 755.515 1701.16 756.991 1700.32 756.153 1701.79 758.075 1703.01 759.172 1706.14 761.094 1706.02 761.019 1708.23 762.474 1707.62 761.99 1710.32 764.535 1711.11 765.132 1713.71 766.666 1712.43 765.534 1713.91 767.464 1714.93 768.438 1716.85 769.748 1716.85 769.748 1718.77 771.058 1718.31 770.702 1719.73 771.969 1720.61 772.583 1723.19 773.951 1722.89 773.774 1724.97 775.098 1724.75 774.947 1727.49 776.936 1727.94 777.217 1730.68 778.751 1730.24 778.47 1732.99 780.458 1732.99 780.458 1735.73 782.447 1735.61 782.352 1738.35 784.492 1741.1 786.633 1740.78 786.356 1743.52 788.951 1743.4 788.831 1746.26 791.751 1746.54 792.012 1750.1 795.069 1749.92 794.91 1753.76 798.582 1753.8 798.619 1760.27 804.666 1760.29 804.68 1767.35 811.214 1767.37 811.237 1775.24 818.407 1775.18 818.353 1782.7 825.456 1782.72 825.474 1790.16 832.415 1790.3 832.537 1797.33 838.582 1797.56 838.77 1804.64 844.073 1805.18 844.424 1810.6 847.363 1810.13 847.071 1814.2 849.985 1815.45 850.608 1817.63 851.303 1815.3 849.569 1816.61 851.485 1816.52 851.357 1817.84 853.431 1818.34 854.078 1820.32 856.216 1820.15 856.016 1822.28 858.603 1822.98 859.285 1825.73 861.425 1825.01 860.717 1827.87 864.244 1828.09 864.494 1830.86 867.435 1830.64 867.185 1833.51 870.712 1833.51 870.712 1836.37 874.239 1836.59 874.489 1839.36 877.431 1839.14 877.18 1842.01 880.707 1844.87 884.234 1845.43 884.805 1848.98 887.863 1848.39 887.247 1852.78 892.804 1853.07 893.126 1857.04 897.27 1856.67 896.831 1860.9 902.554 1861.04 902.737 1864.89 907.413 1864.69 907.156 1867.91 911.702 1868.11 911.96 1871.95 916.636 1871.69 916.28 1874.7 920.782 1874.96 921.138 1878.81 925.815 1878.61 925.558 1881.83 930.104 1882.03 930.361 1885.87 935.038 1885.87 935.039 1889.73 939.724 1889.53 939.466 1892.75 944.015 1892.97 944.299 1897.85 950.13 1897.76 950.023 1900.91 954.031 1900.86 953.978 1905.89 960.577 1906.21 960.953 1910.2 965.144 1909.85 964.731 1914.09 970.425 1914.46 970.86 1919.16 975.728 1919.06 975.62 1925.31 982.534 1925.47 982.697 1930.93 988.157 1930.77 987.994 1937.02 994.908 1937.12 995.016 1941.83 999.884 1941.65 999.692 1945.72 1004.42 1946.19 1004.9 1950.92 1008.96 1950.5 1008.55 1954.52 1013.07 1954.89 1013.43 1959.41 1017.45 1958.93 1016.96 1962.03 1020.72 1962.32 1021.04 1966.99 1025.72 1966.99 1025.72 1969.98 1028.7 1969.98 1028.7 1974.65 1033.38 1974.36 1033.06 1977.47 1036.82 1977.69 1037.07 1981.43 1040.98 1981.25 1040.79 1985.08 1045.28 1985.64 1045.83 1989.41 1048.93 1988.91 1048.45 1992.93 1052.97 1993.63 1053.61 1997.96 1056.77 1997.29 1056.18 2002.46 1061.84 2002.89 1062.26 2006.94 1065.64 2006.65 1065.37 2011.5 1070.22 2011.5 1070.22 2014.25 1072.97 2014.59 1073.28 2018.12 1076.14 2017.87 1075.92 2020.81 1078.7 2021.06 1078.92 2024.59 1081.78 2024.24 1081.47 2026.99 1084.22 2029.74 1086.96 2030.08 1087.27 2033.61 1090.14 2033.36 1089.92 2036.3 1092.69 2036.55 1092.91 2040.07 1095.77 2039.73 1095.46 2042.48 1098.21 2042.48 1098.21 2045.22 1100.96 2045.64 1101.32 2048.38 1103.46 2048.06 1103.19 2050.81 1105.78 2051.13 1106.06 2053.87 1108.2 2053.1 1107.42 2055.24 1110.17 2055.51 1110.49 2058.11 1113.23 2057.46 1112.34 2058.99 1115.09 2059.64 1115.98 2062.24 1118.73 2061.96 1118.4 2064.1 1121.15 2064.47 1121.56 2067.83 1124.92 2070.73 1127.82 2070.43 1127.5 2073.18 1130.86 2073.39 1131.09 2075.99 1133.84 2076.11 1133.96 2079.03 1136.82 2079.09 1136.88 2082.03 1139.66 2082.28 1139.88 2085.81 1142.74 2085.46 1142.43 2088.21 1145.18 2088.21 1145.18 2090.96 1147.92 2090.96 1147.92 2093.7 1150.67 2093.7 1150.67 2096.45 1153.42 2096.79 1153.73 2100.32 1156.59 2100.07 1156.37 2103.01 1159.14 2103.26 1159.36 2106.79 1162.23 2106.44 1161.92 2109.19 1164.66 2109.19 1164.66 2111.94 1167.41 2111.94 1167.41 2114.68 1170.16 2114.68 1170.16 2117.43 1172.9 2120.18 1175.65 2120.59 1176.01 2123.33 1178.15 2123.01 1177.88 2125.76 1180.47 2126.08 1180.75 2128.83 1182.89 2128.76 1182.83 2132.28 1185.69 2132.03 1185.48 2134.98 1188.25 2135.5 1188.68 2139.81 1191.65 2139.28 1191.23 2142.22 1194.01 2142.4 1194.16 2151.08 1201.51 2150.86 1201.31 2155.86 1206.14 2156.07 1206.33 2164.98 1213.92 2165.04 1213.97 2169.72 1217.82 2170.5 1218.34 2175 1220.68 2175.06 1220.71 2178.06 1222.22 2177.59 1221.94 2180.27 1223.73 2179.2 1222.72 2179.83 1223.55 2180.15 1223.92 2181.92 1225.79 2181.13 1224.63 2182.05 1226.56 2182.81 1227.68 2184.79 1229.82 2184.08 1228.79 2185.46 1231.53 2186.18 1232.57 2188.17 1234.71 2187.72 1234.15 2189.98 1237.52 2190.82 1238.46 2193.59 1240.79 2193 1240.19 2195.86 1243.72 2196.17 1244.06 2198.92 1246.81 2198.61 1246.46 2201.47 1249.99 2201.69 1250.24 2204.47 1253.18 2204.04 1252.66 2207.02 1256.97 2207.17 1257.16 2210.06 1260.89 2210.06 1260.89 2212.95 1264.61 2212.8 1264.41 2215.78 1268.72 2215.93 1268.92 2218.82 1272.64 2218.63 1272.38 2221.64 1276.88 2221.64 1276.88 2224.65 1281.38 2224.84 1281.64 2227.73 1285.36 2227.86 1285.52 2231.68 1290.01 2231.74 1290.08 2237.03 1296.03 2237.15 1296.16 2241.43 1300.61 2241.33 1300.5 2247.34 1307.18 2247.5 1307.35 2251.44 1311.28 2251.21 1311.03 2255.27 1315.76 2255.69 1316.19 2260.19 1320.19 2259.56 1319.49 2262.73 1323.83 2263.37 1324.53 2267.88 1328.55 2267.21 1327.79 2270.43 1332.34 2270.86 1332.86 2275.56 1337.73 2275.33 1337.47 2278.43 1341.23 2278.48 1341.29 2282.3 1345.78 2282.48 1345.97 2286.22 1349.88 2285.8 1349.37 2289.02 1353.92 2289.69 1354.67 2294.21 1358.69 2293.58 1358 2296.75 1362.33 2297.13 1362.78 2300.8 1366.62 2300.58 1366.37 2304.43 1371.06 2304.24 1370.8 2307.46 1375.35 2307.65 1375.6 2311.51 1380.29 2311.43 1380.19 2316.62 1386.88 2316.73 1387.01 2321.13 1392.24 2321.21 1392.33 2326.5 1398.29 2326.68 1398.48 2331.35 1403.15 2331.06 1402.83 2334.15 1406.59 2334.63 1407.09 2339.15 1411.11 2338.51 1410.41 2341.68 1414.73 2342.65 1415.7 2346.98 1418.88 2346.53 1418.5 2350.37 1422.17 2350.62 1422.39 2355.31 1426.25 2355.56 1426.44 2360.11 1429.66 2359.59 1429.23 2364.46 1433.93 2364.98 1434.36 2369.53 1437.58 2369.01 1437.15 2373.87 1441.85 2374.65 1442.45 2380.1 1445.79 2379.16 1445.02 2383.41 1449.57 2383.97 1450.08 2389.39 1454.21 2388.94 1453.82 2392.83 1457.7 2392.88 1457.76 2397.75 1462.46 2397.94 1462.63 2402.67 1466.7 2402.2 1466.22 2406.26 1470.96 2406.68 1471.38 2411.2 1475.4 2410.72 1474.9 2416.07 1481.42 2416.31 1481.68 2420.52 1486.05 2420.53 1486.07 2426.39 1492.08 2426.25 1491.94 2430.27 1496.44 2430.44 1496.63 2434.33 1500.51 2434.52 1500.69 2439.03 1504.71 2438.4 1504.02 2441.57 1508.35 2442.21 1509.05 2446.73 1513.07 2446.83 1513.16 2451.62 1517.16 2451.45 1517.01 2456.54 1521.74 2456.92 1522.05 2462.55 1526.23 2462.29 1526.02 2468.17 1531.11 2468.22 1531.16 2474.34 1536.29 2474.34 1536.29 2480.46 1541.42 2480.37 1541.34 2487.21 1547.39 2487.23 1547.42 2493.35 1552.75 2493.18 1552.59 2498.22 1557.46 2498.17 1557.41 2503.36 1562.57 2503.34 1562.55 2511.44 1570.71 2511.44 1570.71 2516.63 1575.94 2516.59 1575.91 2521.69 1581.17 2521.57 1581.04 2528.88 1589.2 2529.24 1589.56 2536.32 1595.85 2536.41 1595.93 2540.84 1599.67 2540.77 1599.6 2544.04 1602.48 2543.47 1601.88 2543.97 1602.52 2544.01 1602.57 2544.54 1603.22 2543.58 1600.97 2543.71 1602.03 2543.71 1602.03C2543.87 1603.34 2544.61 1604.52 2545.73 1605.24L2546.8 1605.93 2545.32 1604.35 2546.02 1605.6 2546.76 1606.59 2548.01 1607.84 2548.01 1607.84 2549.27 1609.09 2548.74 1608.45 2550.05 1610.37 2549.96 1610.25 2551.29 1612.33 2551.79 1612.97 2553.77 1615.11 2553.33 1614.55 2555.59 1617.93 2556.43 1618.86 2559.2 1621.2 2558.61 1620.6 2561.47 1624.12 2561.78 1624.47 2564.53 1627.21 2564.87 1627.52 2568.4 1630.38 2568.15 1630.16 2571.09 1632.94 2571.61 1633.36 2575.92 1636.34 2575.4 1635.92 2578.34 1638.69 2578.86 1639.12 2583.17 1642.1 2582.65 1641.67 2585.59 1644.45 2586.11 1644.87 2590.42 1647.85 2590.31 1647.77 2593.25 1649.94 2593.26 1649.95 2598.79 1654 2599.2 1654.27 2602.45 1656.13 2602.04 1655.87 2607.56 1659.92 2607.55 1659.91 2610.49 1662.08 2610.74 1662.24 2614.26 1664.5 2613.6 1663.98 2616.35 1666.58 2617.24 1667.23 2619.99 1668.77 2619.1 1668.11 2621.84 1670.71 2622.73 1671.36 2625.48 1672.89 2624.59 1672.24 2627.34 1674.84 2628.22 1675.49 2630.97 1677.02 2629.7 1675.97 2631.84 1678.56 2633.02 1679.56 2635.61 1681.1 2634.04 1679.52 2635.57 1682.12 2636.51 1683.24 2639.72 1685.99 2639.12 1685.37 2641.42 1688.27 2641.76 1688.66 2644.46 1691.36 2644.07 1690.91 2646.04 1693.49 2646.32 1693.82 2648.25 1695.9 2647.62 1695.04 2649.16 1697.78 2649.81 1698.67 2652.4 1701.42 2652 1700.93 2653.47 1703.01 2653.57 1703.14 2655.54 1705.72 2656.38 1706.56 2658.3 1708.02 2657.16 1706.74 2658.69 1709.33 2659.26 1710.1 2661.24 1712.23 2661.24 1712.23 2663.23 1714.37 2662.66 1713.6 2664.19 1716.2 2665.33 1717.47 2667.26 1718.95 2666.42 1718.11 2668.4 1720.69 2668.3 1720.56 2669.77 1722.64 2670.58 1723.51 2673.17 1725.65 2672.62 1725.11 2675.38 1728.32 2675.61 1728.57 2677.9 1730.86 2678.15 1731.09 2681.36 1733.85 2680.83 1733.3 2682.97 1735.9 2683.83 1736.7 2685.91 1738.17 2685.78 1738.08 2688.36 1740.05 2688.04 1739.78 2690.12 1741.71 2690.57 1742.08 2692.65 1743.55 2692.08 1743.07 2694.66 1745.65 2695.23 1746.13 2697.32 1747.61 2696.45 1746.81 2698.58 1749.39 2699.76 1750.4 2702.35 1751.93 2700.78 1750.35 2702.3 1752.94 2703.31 1754.12 2705.9 1756.26 2705.1 1755.39 2706.58 1757.48 2707.06 1758.05 2709.64 1760.63 2711.06 1762.05 2711.06 1762.05 2713.64 1764.63 2714.22 1765.11 2716.3 1766.59 2715.43 1765.79 2717.57 1768.38 2718.75 1769.39 2721.34 1770.92 2720.17 1769.92 2722.31 1772.51 2722.6 1772.83 2724.74 1774.97 2725.05 1775.26 2727.65 1777.4 2727.04 1776.79 2729.18 1779.39 2730.05 1780.19 2732.12 1781.66 2731.55 1781.17 2734.12 1783.75 2733.64 1783.17 2735.1 1785.24 2735.91 1786.11 2738.5 1788.25 2737.5 1787.08 2739.03 1789.67 2740.04 1790.84 2742.63 1792.98 2741.95 1792.28 2744.09 1795.03 2743.82 1794.65 2746.02 1798.18 2746.47 1798.78 2749.08 1801.72 2748.63 1801.12 2750.83 1804.64 2751.15 1805.1 2754.01 1808.62 2753.95 1808.55 2756.85 1812.27 2759.74 1815.99 2759.58 1815.77 2763.89 1822.08 2763.76 1821.88 2766.32 1826.1 2766.26 1825.99 2769.1 1830.99 2768.66 1829.89 2769.33 1832.52 2769.33 1832.52C2769.94 1834.9 2772.38 1836.34 2774.76 1835.73 2777.15 1835.12 2778.59 1832.69 2777.98 1830.3 2777.98 1830.3 2777.98 1830.3 2777.98 1830.3Z" fill="#33CCFF" fill-rule="nonzero" fill-opacity="1"/><path d="M1605.62 897.846 1605.62 895.39 1605.43 896.659 1605.98 894.809 1605.9 895.045 1606.59 893.129 1606.3 893.769 1606.99 892.517 1605.46 894.144 1606.56 893.449 1606.56 893.449C1607.33 892.959 1607.93 892.245 1608.28 891.401L1609.03 889.624 1608.25 890.861 1609.5 889.451 1609.54 889.409 1610.83 887.912 1611.03 887.657 1612.26 885.997 1611.92 886.41 1613.21 885.05 1613.75 884.347 1615.06 882.265 1614.9 882.496 1616.87 879.75 1616.78 879.876 1618.9 877.13 1621.02 874.384 1620.75 874.709 1623.32 871.963 1623.72 871.468 1625.18 869.386 1624.69 869.968 1626.59 868.052 1626.6 868.044 1627.83 866.792 1627.83 866.792 1629.07 865.54 1628.08 866.296 1629.31 865.601 1630.1 865.031 1631.3 863.952 1631.5 863.765 1632.18 863.078 1632.36 862.88 1633.42 861.661 1633.42 861.661C1634.02 860.974 1634.4 860.119 1634.5 859.212L1634.63 857.96 1632.6 861.237 1633.69 860.542 1633.69 860.542C1634.81 859.823 1635.55 858.641 1635.72 857.317L1635.85 856.204 1634.94 858.404 1635.48 857.709 1635.46 857.735 1636.01 857.04 1636.01 857.04C1636.51 856.403 1636.83 855.641 1636.94 854.837L1637.07 853.757 1636.05 856.086 1636.59 855.441 1637.26 854.395 1637.8 853.187 1638.17 851.845 1638.31 850.635 1637.23 853.075 1638.33 851.823 1638.89 851.024 1639.57 849.772 1639.57 849.773 1640.26 848.521 1639.7 849.319 1640.8 848.067 1640.8 848.067C1641.4 847.378 1641.78 846.521 1641.88 845.61L1642.01 844.359 1640.93 846.816 1642.03 845.564 1642.03 845.564C1642.63 844.88 1643 844.03 1643.11 843.128L1643.24 841.926 1641.22 845.177 1642.28 844.494 1640.44 845.167 1640.57 845.15 1636.46 843.441 1636.97 844.111 1636.05 841.391 1636.05 843.23 1636.05 844.629 1636.05 847.191 1636.05 849.254 1636.05 851.982 1636.05 855.257 1636.05 857.458 1636.05 861.115 1636.05 862.651 1636.05 865.761 1636.05 867.16 1636.05 869.057 1636.05 870.954 1636.05 872.353 1636.05 874.251 1636.05 876.148 1636.35 877.776 1636.9 879.175 1636.86 879.064 1637.55 880.961 1637.84 881.613 1638.53 882.846 1638.35 882.491 1638.9 883.724 1638.9 883.724 1639.45 884.957 1639.6 885.275 1640.25 886.474 1641.02 887.501 1642.21 888.693 1643.4 889.884 1643.4 889.884 1644.6 891.084 1643.86 890.095 1644.54 891.328 1645.11 892.126 1646.2 893.359 1645.38 892.02 1646.13 893.918 1646.95 895.262 1648.2 896.661 1647.37 895.317 1648.12 897.214 1648.94 898.553 1650.03 899.786 1648.93 897.312 1649.07 898.545 1649.07 898.545C1649.17 899.463 1649.56 900.328 1650.17 901.018L1651.27 902.252 1650.17 899.794 1650.31 900.985 1650.31 900.985C1650.41 901.904 1650.8 902.768 1651.42 903.457L1652.51 904.68 1651.4 902.209 1651.54 903.4 1651.54 903.4C1651.64 904.313 1652.03 905.171 1652.64 905.857L1653.73 907.091 1653.17 906.292 1653.85 907.525 1653.85 907.525 1654.54 908.758 1655.1 909.556 1656.2 910.789 1655.63 909.991 1656.32 911.224 1656.32 911.224 1657 912.457 1657.09 912.61 1658.25 914.507 1658.07 914.182 1658.77 915.581 1658.6 915.214 1659.35 917.111 1660.17 918.449 1661.26 919.682 1660.16 917.207 1660.3 918.44 1660.3 918.44C1660.4 919.359 1660.78 920.224 1661.4 920.915L1662.5 922.148 1661.39 919.678 1661.53 920.902 1661.53 920.902C1661.63 921.821 1662.02 922.685 1662.63 923.375L1663.73 924.606 1662.63 922.133 1662.76 923.358 1663.14 924.717 1663.69 925.917 1664.2 926.765 1664.71 927.441 1663.83 925.274 1663.96 926.337 1663.96 926.337C1664.18 928.15 1665.48 929.647 1667.25 930.116L1667.76 930.253 1664.44 925.938 1664.44 926.486 1664.44 926.485C1664.44 928.952 1666.44 930.951 1668.91 930.95 1671.38 930.949 1673.37 928.951 1673.38 926.486L1673.38 925.938 1673.38 925.938C1673.38 923.914 1672.01 922.143 1670.06 921.622L1669.54 921.485 1672.83 925.264 1672.7 924.201 1672.7 924.201C1672.6 923.414 1672.3 922.666 1671.82 922.034L1671.31 921.358 1671.81 922.206 1671.27 921.006 1671.64 922.365 1671.5 921.14 1671.5 921.14C1671.4 920.221 1671.02 919.357 1670.4 918.667L1669.31 917.436 1670.41 919.909 1670.27 918.684 1670.27 918.684C1670.17 917.767 1669.78 916.904 1669.17 916.214L1668.07 914.981 1669.18 917.456 1669.04 916.223 1669.04 916.223C1668.94 915.304 1668.55 914.439 1667.94 913.748L1666.84 912.515 1667.66 913.853 1666.92 911.956 1666.76 911.588 1666.06 910.189 1665.88 909.864 1664.72 907.967 1664.81 908.119 1664.13 906.886 1664.13 906.887 1663.44 905.654 1662.88 904.855 1661.78 903.622 1662.35 904.42 1661.66 903.187 1661.66 903.188 1660.98 901.955 1660.41 901.156 1659.31 899.923 1660.41 902.38 1660.27 901.188 1660.27 901.188C1660.17 900.27 1659.78 899.406 1659.16 898.718L1658.07 897.495 1659.18 899.967 1659.04 898.775 1659.04 898.775C1658.94 897.863 1658.55 897.004 1657.94 896.318L1656.85 895.085 1657.95 897.558 1657.81 896.325 1657.81 896.325C1657.71 895.406 1657.32 894.542 1656.71 893.851L1655.61 892.618 1656.43 893.957 1655.69 892.06 1654.87 890.716 1653.62 889.317 1654.44 890.661 1653.7 888.763 1652.88 887.425 1651.78 886.192 1652.35 886.99 1651.67 885.757 1650.92 884.768 1649.72 883.568 1649.72 883.568 1648.53 882.376 1647.34 881.185 1648.1 882.212 1647.45 881.012 1647.61 881.329 1647.06 880.096 1647.06 880.096 1646.51 878.863 1646.33 878.509 1645.65 877.276 1645.95 877.927 1645.26 876.03 1645.22 875.919 1644.67 874.519 1644.98 876.148 1644.98 874.251 1644.98 872.353 1644.98 870.954 1644.98 869.057 1644.98 867.16 1644.98 865.761 1644.98 862.651 1644.98 861.115 1644.98 857.458 1644.98 855.257 1644.98 851.982 1644.98 849.254 1644.98 847.191 1644.98 844.629 1644.98 843.23 1644.98 841.391 1644.98 841.391C1644.98 840.407 1644.65 839.451 1644.05 838.671L1643.54 838 1643.54 838C1642.57 836.739 1641.01 836.088 1639.43 836.291L1639.3 836.308 1639.3 836.308C1638.64 836.392 1638.01 836.622 1637.46 836.98L1636.39 837.663 1636.39 837.663C1635.26 838.388 1634.52 839.581 1634.37 840.914L1634.23 842.116 1635.31 839.68 1634.21 840.932 1634.21 840.932C1633.61 841.621 1633.23 842.478 1633.13 843.388L1633 844.64 1634.08 842.183 1632.98 843.435 1632.42 844.233 1631.74 845.484 1631.74 845.485 1631.05 846.737 1631.61 845.938 1630.51 847.19 1630.51 847.19C1629.92 847.874 1629.54 848.725 1629.44 849.63L1629.3 850.84 1629.67 849.498 1629.12 850.706 1629.78 849.66 1629.24 850.306 1629.24 850.306C1628.68 850.966 1628.32 851.775 1628.21 852.635L1628.07 853.714 1629 851.511 1628.45 852.206 1628.43 852.232 1627.89 852.928 1627.89 852.928C1627.39 853.566 1627.08 854.326 1626.98 855.128L1626.85 856.241 1628.88 853.016 1627.79 853.711 1627.79 853.711C1626.65 854.439 1625.9 855.644 1625.75 856.988L1625.62 858.24 1626.69 855.79 1625.63 857.009 1625.81 856.81 1625.14 857.498 1625.33 857.311 1624.13 858.39 1624.92 857.821 1623.69 858.516 1622.7 859.272 1621.47 860.524 1621.47 860.524 1620.24 861.775 1620.25 861.767 1618.35 863.683 1617.86 864.265 1616.41 866.347 1616.81 865.852 1614.23 868.598 1613.95 868.924 1611.83 871.67 1609.71 874.416 1609.62 874.543 1607.65 877.289 1607.49 877.52 1606.19 879.602 1606.73 878.899 1605.44 880.259 1605.09 880.672 1603.86 882.333 1604.06 882.077 1602.77 883.574 1602.81 883.532 1601.56 884.941 1600.79 886.178 1600.04 887.955 1601.77 885.907 1600.68 886.602 1600.68 886.602C1600.04 887.007 1599.51 887.567 1599.15 888.23L1598.46 889.481 1598.18 890.121 1597.49 892.037 1597.42 892.273 1596.87 894.122 1596.68 895.39 1596.68 897.846 1596.68 897.846C1596.68 900.313 1598.68 902.312 1601.15 902.312 1603.62 902.312 1605.62 900.313 1605.62 897.846 1605.62 897.846 1605.62 897.846 1605.62 897.846Z" fill="#33CCFF" fill-rule="nonzero" fill-opacity="1"/></g></svg>