<svg width="2319" height="1825" xmlns="http://www.w3.org/2000/svg" xmlns:xlink="http://www.w3.org/1999/xlink" overflow="hidden"><defs><clipPath id="clip0"><rect x="930" y="210" width="2319" height="1825"/></clipPath></defs><g clip-path="url(#clip0)" transform="translate(-930 -210)"><rect x="934.5" y="215.5" width="2310" height="1815" stroke="#000000" stroke-width="4.58333" stroke-linecap="butt" stroke-linejoin="miter" stroke-miterlimit="8" stroke-opacity="1" fill="#FFFFFF" fill-opacity="1"/><path d="M1602.5 678C1602.5 655.08 1621.08 636.5 1644 636.5 1666.92 636.5 1685.5 655.08 1685.5 678 1685.5 700.92 1666.92 719.5 1644 719.5 1621.08 719.5 1602.5 700.92 1602.5 678Z" stroke="#000000" stroke-width="4.58333" stroke-linecap="butt" stroke-linejoin="miter" stroke-miterlimit="8" stroke-opacity="1" fill="#000000" fill-rule="evenodd" fill-opacity="1"/><path d="M2048.5 678C2048.5 655.08 2066.86 636.5 2089.5 636.5 2112.14 636.5 2130.5 655.08 2130.5 678 2130.5 700.92 2112.14 719.5 2089.5 719.5 2066.86 719.5 2048.5 700.92 2048.5 678Z" stroke="#000000" stroke-width="4.58333" stroke-linecap="butt" stroke-linejoin="miter" stroke-miterlimit="8" stroke-opacity="1" fill="#000000" fill-rule="evenodd" fill-opacity="1"/><path d="M2493.5 678C2493.5 655.08 2512.08 636.5 2535 636.5 2557.92 636.5 2576.5 655.08 2576.5 678 2576.5 700.92 2557.92 719.5 2535 719.5 2512.08 719.5 2493.5 700.92 2493.5 678Z" stroke="#000000" stroke-width="4.58333" stroke-linecap="butt" stroke-linejoin="miter" stroke-miterlimit="8" stroke-opacity="1" fill="#000000" fill-rule="evenodd" fill-opacity="1"/><path d="M1602.5 1123.5C1602.5 1100.86 1621.08 1082.5 1644 1082.5 1666.92 1082.5 1685.5 1100.86 1685.5 1123.5 1685.5 1146.14 1666.92 1164.5 1644 1164.5 1621.08 1164.5 1602.5 1146.14 1602.5 1123.5Z" stroke="#000000" stroke-width="4.58333" stroke-linecap="butt" stroke-linejoin="miter" stroke-miterlimit="8" stroke-opacity="1" fill="#000000" fill-rule="evenodd" fill-opacity="1"/><path d="M1606.5 1569C1606.5 1546.08 1625.08 1527.5 1648 1527.5 1670.92 1527.5 1689.5 1546.08 1689.5 1569 1689.5 1591.92 1670.92 1610.5 1648 1610.5 1625.08 1610.5 1606.5 1591.92 1606.5 1569Z" stroke="#000000" stroke-width="4.58333" stroke-linecap="butt" stroke-linejoin="miter" stroke-miterlimit="8" stroke-opacity="1" fill="#000000" fill-rule="evenodd" fill-opacity="1"/><path d="M2048.5 1125.5C2048.5 1102.86 2066.86 1084.5 2089.5 1084.5 2112.14 1084.5 2130.5 1102.86 2130.5 1125.5 2130.5 1148.14 2112.14 1166.5 2089.5 1166.5 2066.86 1166.5 2048.5 1148.14 2048.5 1125.5Z" stroke="#000000" stroke-width="4.58333" stroke-linecap="butt" stroke-linejoin="miter" stroke-miterlimit="8" stroke-opacity="1" fill="#000000" fill-rule="evenodd" fill-opacity="1"/><path d="M2493.5 1125.5C2493.5 1102.86 2512.08 1084.5 2535 1084.5 2557.92 1084.5 2576.5 1102.86 2576.5 1125.5 2576.5 1148.14 2557.92 1166.5 2535 1166.5 2512.08 1166.5 2493.5 1148.14 2493.5 1125.5Z" stroke="#000000" stroke-width="4.58333" stroke-linecap="butt" stroke-linejoin="miter" stroke-miterlimit="8" stroke-opacity="1" fill="#000000" fill-rule="evenodd" fill-opacity="1"/><path d="M2493.5 1573C2493.5 1550.08 2512.08 1531.5 2535 1531.5 2557.92 1531.5 2576.5 1550.08 2576.5 1573 2576.5 1595.92 2557.92 1614.5 2535 1614.5 2512.08 1614.5 2493.5 1595.92 2493.5 1573Z" stroke="#000000" stroke-width="4.58333" stroke-linecap="butt" stroke-linejoin="miter" stroke-miterlimit="8" stroke-opacity="1" fill="#000000" fill-rule="evenodd" fill-opacity="1"/><path d="M2050.5 1573C2050.5 1550.08 2068.86 1531.5 2091.5 1531.5 2114.14 1531.5 2132.5 1550.08 2132.5 1573 2132.5 1595.92 2114.14 1614.5 2091.5 1614.5 2068.86 1614.5 2050.5 1595.92 2050.5 1573Z" stroke="#000000" stroke-width="4.58333" stroke-linecap="butt" stroke-linejoin="miter" stroke-miterlimit="8" stroke-opacity="1" fill="#000000" fill-rule="evenodd" fill-opacity="1"/></g></svg>